<?xml version="1.0" encoding="UTF-8"?>
<svg width="24px" height="24px" viewBox="0 0 24 24" version="1.1" xmlns="http://www.w3.org/2000/svg" xmlns:xlink="http://www.w3.org/1999/xlink">
    <!-- Generator: Sketch 58 (84663) - https://sketch.com -->
    <title>back</title>
    <desc>Created with Sketch.</desc>
    <g id="Page-1" stroke="none" stroke-width="1" fill="none" fill-rule="evenodd" opacity="0.6">
        <g id="Blog_click" transform="translate(-791.000000, -168.000000)" fill="#6B6F81">
            <g id="back" transform="translate(803.000000, 180.000000) scale(-1, 1) translate(-803.000000, -180.000000) translate(791.000000, 168.000000)">
                <path d="M12,1.44 C17.83224,1.44 22.56,6.16776 22.56,12 C22.56,17.83224 17.83224,22.56 12,22.56 C6.17064,22.55352 1.44648,17.82936 1.44,12 C1.44,6.16776 6.16776,1.44 12,1.44 M12,24 C18.62736,24 24,18.62736 24,12 C24,5.37264 18.62736,0 12,0 C5.37576,0.00792 0.00792,5.37576 0,12 C0,18.62736 5.37264,24 12,24" id="Fill-1"></path>
                <polygon id="Fill-3" points="10.6479817 17.6 16 12 10.6479817 6.4 9.6 7.44238116 13.9576542 12 9.6 16.5578676"></polygon>
            </g>
        </g>
    </g>
</svg>