<?xml version="1.0" encoding="UTF-8"?>
<svg width="15px" height="15px" viewBox="0 0 15 15" version="1.1" xmlns="http://www.w3.org/2000/svg" xmlns:xlink="http://www.w3.org/1999/xlink">
    <!-- Generator: Sketch 58 (84663) - https://sketch.com -->
    <title>Cart Icon</title>
    <desc>Created with Sketch.</desc>
    <g id="Page-1" stroke="none" stroke-width="1" fill="none" fill-rule="evenodd" opacity="0.5">
        <g id="Faqs" transform="translate(-1171.000000, -16.000000)" fill="#A3A8FD">
            <path d="M1177.0284,27.7991744 C1177.76246,28.5314078 1177.76246,29.7185922 1177.0284,30.4508253 C1176.29433,31.1830582 1175.10417,31.1830582 1174.3701,30.4508253 C1173.63603,29.7185922 1173.63603,28.5314078 1174.3701,27.7991744 C1175.10417,27.0669419 1176.29433,27.0669419 1177.0284,27.7991744 Z M1184.54719,27.7991744 C1185.28126,28.5314078 1185.28126,29.7185922 1184.54719,30.4508253 C1183.81312,31.1830582 1182.62297,31.1830582 1181.8889,30.4508253 C1181.15483,29.7185922 1181.15483,28.5314078 1181.8889,27.7991744 C1182.62297,27.0669419 1183.81312,27.0669419 1184.54719,27.7991744 Z M1171,16 L1173.81955,16 C1174.25031,16 1174.6021,16.2363281 1174.73014,16.636773 L1174.7594,16.75 L1175.22932,18.8125 L1185.09774,18.8125 C1185.80263,18.8125 1186.0945,19.4716797 1185.97335,19.9403152 L1185.94361,20.03125 L1184.06391,25.65625 C1183.97932,25.99375 1183.66635,26.2553125 1183.33055,26.30425 L1183.21805,26.3125 L1175.69925,26.3125 C1175.26848,26.3125 1174.91669,26.0761719 1174.78866,25.675727 L1174.7594,25.5625 L1173.06767,17.875 L1171,17.875 L1171,16 L1173.81955,16 Z" id="Cart-Icon"></path>
        </g>
    </g>
</svg>