<?xml version="1.0" encoding="UTF-8"?>
<svg width="22px" height="14px" viewBox="0 0 22 14" version="1.1" xmlns="http://www.w3.org/2000/svg" xmlns:xlink="http://www.w3.org/1999/xlink">
    <!-- Generator: Sketch 58 (84663) - https://sketch.com -->
    <title>email</title>
    <desc>Created with Sketch.</desc>
    <defs>
        <polygon id="path-1" points="0 2.12121212e-05 21.2121212 2.12121212e-05 21.2121212 13.7921212 0 13.7921212"></polygon>
    </defs>
    <g id="Page-1" stroke="none" stroke-width="1" fill="none" fill-rule="evenodd" opacity="0.4">
        <g id="Contact_Us" transform="translate(-184.000000, -1275.000000)">
            <g id="Sign-Up/In-03" transform="translate(144.000000, 487.000000)">
                <g id="Create-Account" transform="translate(40.000000, 64.000000)">
                    <g id="email" transform="translate(0.000000, 724.000000)">
                        <mask id="mask-2" fill="white">
                            <use xlink:href="#path-1"></use>
                        </mask>
                        <g id="Clip-2"></g>
                        <path d="M17.6675758,4.10244545 L11.1066667,8.63123333 L11.030303,8.6779 L11.0112121,8.6779 C10.9832121,8.69359697 10.9543636,8.70696061 10.9242424,8.71820303 C10.8930606,8.7298697 10.8612424,8.73983939 10.8287879,8.7479 C10.7973939,8.75617273 10.7655758,8.76274848 10.7333333,8.76699091 L10.7206061,8.76699091 C10.6881515,8.76911212 10.6554848,8.76911212 10.6230303,8.76699091 C10.5890909,8.76911212 10.5551515,8.76911212 10.5212121,8.76699091 L10.4787879,8.76699091 L10.3939394,8.76062727 L10.3493939,8.7479 L10.2815152,8.72244545 L10.2433333,8.70547576 C10.2163939,8.69232424 10.1900909,8.67726364 10.1648485,8.6609303 L10.1478788,8.6609303 L10.1330303,8.65032424 L2.99727273,4.03244545 C2.59657576,3.77302121 2.48224242,3.23783939 2.74166667,2.83714242 C3.00109091,2.43644545 3.53627273,2.3219 3.9369697,2.58153636 L10.5912121,6.89608182 L16.6854545,2.67911212 C17.0901818,2.42499091 17.6245152,2.54696061 17.8786364,2.95168788 C18.1172727,3.33202121 18.0256364,3.83177879 17.6675758,4.10244545 M18.4142424,2.12121212e-05 L2.79787879,2.12121212e-05 C1.25257576,2.12121212e-05 0,1.25259697 0,2.7979 L0,10.9942636 C0,12.5393545 1.25257576,13.7921424 2.79787879,13.7921424 L18.4142424,13.7921424 C19.9595455,13.7921424 21.2121212,12.5393545 21.2121212,10.9942636 L21.2121212,2.7979 C21.2121212,1.25259697 19.9595455,2.12121212e-05 18.4142424,2.12121212e-05" id="Fill-1" fill="#000000" mask="url(#mask-2)"></path>
                    </g>
                </g>
            </g>
        </g>
    </g>
</svg>