<?xml version="1.0" encoding="UTF-8"?>
<svg width="19px" height="24px" viewBox="0 0 19 24" version="1.1" xmlns="http://www.w3.org/2000/svg" xmlns:xlink="http://www.w3.org/1999/xlink">
    <!-- Generator: Sketch 58 (84663) - https://sketch.com -->
    <title>general</title>
    <desc>Created with Sketch.</desc>
    <g id="Page-1" stroke="none" stroke-width="1" fill="none" fill-rule="evenodd">
        <g id="Products" transform="translate(-188.000000, -1099.000000)" fill="#FFFFFF">
            <g id="Category-tab" transform="translate(165.000000, 1073.000000)">
                <g id="Category-Tab">
                    <g id="general" transform="translate(23.000000, 26.000000)">
                        <path d="M16.6153846,12 C16.6153846,15.5095385 11.7050769,20.0183077 9.23076923,21.9249231 C6.75553846,20.0201538 1.84615385,15.5146154 1.84615385,12 L1.84615385,7.31861538 C4.67169231,6.91292308 6.91292308,4.67169231 7.31861538,1.84615385 L11.1424615,1.84615385 C11.5481538,4.67215385 13.7898462,6.91338462 16.6153846,7.31907692 L16.6153846,12 Z M17.5384615,5.53846154 C14.9935385,5.53846154 12.9230769,3.468 12.9230769,0.923076923 C12.9230769,0.413538462 12.5095385,0 12,0 L6.46153846,0 C5.952,0 5.53846154,0.413538462 5.53846154,0.923076923 C5.53846154,3.468 3.468,5.53846154 0.923076923,5.53846154 C0.413538462,5.53846154 0,5.952 0,6.46153846 L0,12 C0,17.5075385 8.33676923,23.5712308 8.69169231,23.8264615 C8.85276923,23.9418462 9.04153846,24 9.23076923,24 C9.42,24 9.60876923,23.9418462 9.76984615,23.826 C10.1252308,23.5707692 18.4615385,17.5075385 18.4615385,12 L18.4615385,6.46153846 C18.4615385,5.952 18.048,5.53846154 17.5384615,5.53846154 L17.5384615,5.53846154 Z" id="Fill-1"></path>
                        <path d="M12.2704154,9.50118462 L8.30764615,13.4639538 L7.11410769,12.2704154 C6.75410769,11.9099538 6.16887692,11.9099538 5.80887692,12.2704154 C5.44841538,12.6308769 5.44841538,13.2151846 5.80887692,13.5756462 L7.65503077,15.4218 C7.83503077,15.6022615 8.07133846,15.6922615 8.30764615,15.6922615 C8.54395385,15.6922615 8.78026154,15.6022615 8.96026154,15.4218 L13.5756462,10.8064154 C13.9361077,10.4459538 13.9361077,9.86164615 13.5756462,9.50118462 C13.2151846,9.14072308 12.6308769,9.14072308 12.2704154,9.50118462" id="Fill-3"></path>
                    </g>
                </g>
            </g>
        </g>
    </g>
</svg>