<?xml version="1.0" encoding="UTF-8"?>
<svg width="62px" height="48px" viewBox="0 0 62 48" version="1.1" xmlns="http://www.w3.org/2000/svg" xmlns:xlink="http://www.w3.org/1999/xlink">
    <!-- Generator: Sketch 58 (84663) - https://sketch.com -->
    <title>h1</title>
    <desc>Created with Sketch.</desc>
    <g id="Page-1" stroke="none" stroke-width="1" fill="none" fill-rule="evenodd" opacity="0.4">
        <g id="Help" transform="translate(-277.000000, -510.000000)" fill="#000000">
            <g id="h1" transform="translate(277.000000, 510.000000)">
                <g id="Group-19">
                    <path d="M48,8.72727273 L58.9090909,8.72727273 L58.9090909,7.63636364 C58.9090909,4.62872727 56.4621818,2.18181818 53.4545455,2.18181818 C51.9916364,2.18181818 50.6236364,2.74909091 49.6036364,3.77890909 C48.5672727,4.80545455 48,6.17345455 48,7.63636364 L48,8.72727273 Z M60,10.9090909 L46.9090909,10.9090909 C46.3058182,10.9090909 45.8181818,10.4203636 45.8181818,9.81818182 L45.8181818,7.63636364 C45.8181818,5.58763636 46.6145455,3.66872727 48.0610909,2.23527273 C49.4869091,0.796363636 51.4047273,0 53.4545455,0 C57.6643636,0 61.0909091,3.42545455 61.0909091,7.63636364 L61.0909091,9.81818182 C61.0909091,10.4203636 60.6032727,10.9090909 60,10.9090909 L60,10.9090909 Z" id="Fill-1"></path>
                    <path d="M2.18181818,39.2727273 L2.18181818,40.3636364 C2.18181818,43.3712727 4.62872727,45.8181818 7.63636364,45.8181818 L35.0236364,45.8181818 C33.6076364,44.4316364 32.7272727,42.4985455 32.7272727,40.3636364 L32.7272727,39.2727273 L2.18181818,39.2727273 Z M40.3636364,48 L7.63636364,48 C3.42654545,48 0,44.5745455 0,40.3636364 L0,38.1818182 C0,37.5796364 0.487636364,37.0909091 1.09090909,37.0909091 L33.8181818,37.0909091 C34.4214545,37.0909091 34.9090909,37.5796364 34.9090909,38.1818182 L34.9090909,40.3636364 C34.9090909,43.3712727 37.356,45.8181818 40.3636364,45.8181818 C40.9669091,45.8181818 41.4545455,46.3069091 41.4545455,46.9090909 C41.4545455,47.5112727 40.9669091,48 40.3636364,48 L40.3636364,48 Z" id="Fill-3"></path>
                    <path d="M15.2727273,37.0909091 L33.8181818,37.0909091 C34.4214545,37.0909091 34.9090909,37.5796364 34.9090909,38.1818182 L34.9090909,40.3636364 C34.9090909,43.3712727 37.356,45.8181818 40.3636364,45.8181818 C41.6629091,45.8181818 42.8869091,45.3709091 43.86,44.5483636 C40.9309091,41.8156364 39.2727273,38.0225455 39.2727273,33.9709091 L39.2727273,24.6109091 C39.2727273,24.1232727 39.5956364,23.6956364 40.0647273,23.5614545 L45.8181818,21.9218182 L45.8181818,7.63636364 C45.8181818,5.58763636 46.6145455,3.66872727 48.0610909,2.23527273 C48.0785455,2.21781818 48.0970909,2.20036364 48.1145455,2.18181818 L20.7272727,2.18181818 C17.7196364,2.18181818 15.2727273,4.62872727 15.2727273,7.63636364 L15.2727273,37.0909091 Z M40.3636364,48 C36.1538182,48 32.7272727,44.5745455 32.7272727,40.3636364 L32.7272727,39.2727273 L14.1818182,39.2727273 C13.5785455,39.2727273 13.0909091,38.784 13.0909091,38.1818182 L13.0909091,7.63636364 C13.0909091,3.42545455 16.5174545,0 20.7272727,0 L53.4545455,0 C54.0578182,0 54.5454545,0.488727273 54.5454545,1.09090909 C54.5454545,1.69309091 54.0578182,2.18181818 53.4545455,2.18181818 C51.9916364,2.18181818 50.6236364,2.74909091 49.6036364,3.77890909 C48.5672727,4.80545455 48,6.17345455 48,7.63636364 L48,22.7454545 C48,23.2330909 47.6770909,23.6607273 47.208,23.7949091 L41.4545455,25.4345455 L41.4545455,33.9709091 C41.4545455,37.7541818 43.1574545,41.2723636 46.1247273,43.6210909 C46.3527273,43.8021818 46.5,44.0672727 46.5316364,44.3563636 C46.5643636,44.6465455 46.4781818,44.9367273 46.2949091,45.1636364 C46.1301818,45.3654545 45.9523636,45.5683636 45.7625455,45.7581818 C44.3312727,47.2036364 42.4134545,48 40.3636364,48 L40.3636364,48 Z" id="Fill-5"></path>
                    <path d="M40.3636364,12 L20.7272727,12 C20.124,12 19.6363636,11.5112727 19.6363636,10.9090909 C19.6363636,10.3069091 20.124,9.81818182 20.7272727,9.81818182 L40.3636364,9.81818182 C40.9669091,9.81818182 41.4545455,10.3069091 41.4545455,10.9090909 C41.4545455,11.5112727 40.9669091,12 40.3636364,12" id="Fill-7"></path>
                    <path d="M40.3636364,18.5454545 L20.7272727,18.5454545 C20.124,18.5454545 19.6363636,18.0567273 19.6363636,17.4545455 C19.6363636,16.8523636 20.124,16.3636364 20.7272727,16.3636364 L40.3636364,16.3636364 C40.9669091,16.3636364 41.4545455,16.8523636 41.4545455,17.4545455 C41.4545455,18.0567273 40.9669091,18.5454545 40.3636364,18.5454545" id="Fill-9"></path>
                    <path d="M36,25.0909091 L20.7272727,25.0909091 C20.124,25.0909091 19.6363636,24.6021818 19.6363636,24 C19.6363636,23.3978182 20.124,22.9090909 20.7272727,22.9090909 L36,22.9090909 C36.6032727,22.9090909 37.0909091,23.3978182 37.0909091,24 C37.0909091,24.6021818 36.6032727,25.0909091 36,25.0909091" id="Fill-11"></path>
                    <path d="M36,31.6363636 L20.7272727,31.6363636 C20.124,31.6363636 19.6363636,31.1476364 19.6363636,30.5454545 C19.6363636,29.9432727 20.124,29.4545455 20.7272727,29.4545455 L36,29.4545455 C36.6032727,29.4545455 37.0909091,29.9432727 37.0909091,30.5454545 C37.0909091,31.1476364 36.6032727,31.6363636 36,31.6363636" id="Fill-13"></path>
                    <path d="M41.4545455,25.4344364 L41.4545455,33.9708 C41.4545455,37.7540727 43.1574545,41.2722545 46.1247273,43.6209818 C47.3465455,44.5918909 48.7101818,45.3140727 50.1818182,45.7711636 C55.3363636,44.1708 58.9090909,39.3620727 58.9090909,33.9708 L58.9090909,25.4344364 L50.1807273,22.9526182 L41.4545455,25.4344364 Z M50.1818182,47.9998909 C50.0814545,47.9998909 49.9810909,47.9857091 49.884,47.9584364 C48.0207273,47.4293455 46.2981818,46.5457091 44.7687273,45.3304364 C41.2767273,42.5660727 39.2727273,38.4249818 39.2727273,33.9708 L39.2727273,24.6108 C39.2727273,24.1231636 39.5956364,23.6955273 40.0647273,23.5613455 L49.8850909,20.7686182 C50.0781818,20.7129818 50.2865455,20.7129818 50.4796364,20.7686182 L60.2978182,23.5613455 C60.7669091,23.6955273 61.0909091,24.1231636 61.0909091,24.6108 L61.0909091,33.9708 C61.0909091,40.4366182 56.7272727,46.1889818 50.4785455,47.9584364 C50.3825455,47.9857091 50.2821818,47.9998909 50.1818182,47.9998909 L50.1818182,47.9998909 Z" id="Fill-15"></path>
                    <path d="M49.0909091,38.1818182 C48.8116364,38.1818182 48.5323636,38.0749091 48.3196364,37.8621818 L45.5923636,35.1349091 C45.1658182,34.7083636 45.1658182,34.0189091 45.5923636,33.5923636 C46.0189091,33.1658182 46.7083636,33.1658182 47.1349091,33.5923636 L49.0909091,35.5483636 L53.7741818,30.8650909 C54.2007273,30.4385455 54.8901818,30.4385455 55.3167273,30.8650909 C55.7432727,31.2916364 55.7432727,31.9810909 55.3167273,32.4076364 L49.8621818,37.8621818 C49.6494545,38.0749091 49.3701818,38.1818182 49.0909091,38.1818182" id="Fill-17"></path>
                </g>
            </g>
        </g>
    </g>
</svg>