<?xml version="1.0" encoding="UTF-8"?>
<svg width="48px" height="62px" viewBox="0 0 48 62" version="1.1" xmlns="http://www.w3.org/2000/svg" xmlns:xlink="http://www.w3.org/1999/xlink">
    <!-- Generator: Sketch 58 (84663) - https://sketch.com -->
    <title>h2</title>
    <desc>Created with Sketch.</desc>
    <defs>
        <polygon id="path-1" points="0.000109090909 0 48 0 48 56.7272727 0.000109090909 56.7272727"></polygon>
    </defs>
    <g id="Page-1" stroke="none" stroke-width="1" fill="none" fill-rule="evenodd" opacity="0.4">
        <g id="Help" transform="translate(-284.000000, -726.000000)">
            <g id="h2" transform="translate(284.000000, 726.000000)">
                <g id="Group-3" transform="translate(0.000000, 4.363636)">
                    <mask id="mask-2" fill="white">
                        <use xlink:href="#path-1"></use>
                    </mask>
                    <g id="Clip-2"></g>
                    <path d="M5.54192727,2.18181818 C3.68956364,2.18181818 2.18192727,3.68945455 2.18192727,5.54181818 L2.18192727,51.1854545 C2.18192727,53.0378182 3.68956364,54.5454545 5.54192727,54.5454545 L42.4582909,54.5454545 C44.3106545,54.5454545 45.8182909,53.0378182 45.8182909,51.1854545 L45.8182909,5.54181818 C45.8182909,3.68945455 44.3106545,2.18181818 42.4582909,2.18181818 L33.7921091,2.18181818 C33.5412,4.62981818 31.4662909,6.54545455 28.9528364,6.54545455 L19.0473818,6.54545455 C16.5339273,6.54545455 14.4590182,4.62981818 14.2070182,2.18181818 L5.54192727,2.18181818 Z M42.4582909,56.7272727 L5.54192727,56.7272727 C2.48629091,56.7272727 0.000109090909,54.2410909 0.000109090909,51.1854545 L0.000109090909,5.54181818 C0.000109090909,2.48618182 2.48629091,0 5.54192727,0 L15.2728364,0 C15.8761091,0 16.3637455,0.488727273 16.3637455,1.09090909 L16.3637455,1.68 C16.3637455,3.15927273 17.5670182,4.36363636 19.0473818,4.36363636 L28.9528364,4.36363636 C30.4321091,4.36363636 31.6364727,3.15927273 31.6364727,1.68 L31.6364727,1.09090909 C31.6364727,0.488727273 32.1241091,0 32.7273818,0 L42.4582909,0 C45.5139273,0 48.0001091,2.48618182 48.0001091,5.54181818 L48.0001091,51.1854545 C48.0001091,54.2410909 45.5139273,56.7272727 42.4582909,56.7272727 L42.4582909,56.7272727 Z" id="Fill-1" fill="#000000" mask="url(#mask-2)"></path>
                </g>
                <path d="M9.81818182,10.9090909 C9.216,10.9090909 8.72727273,11.3989091 8.72727273,12 L8.72727273,52.3636364 C8.72727273,52.9647273 9.216,53.4545455 9.81818182,53.4545455 L38.1818182,53.4545455 C38.784,53.4545455 39.2727273,52.9647273 39.2727273,52.3636364 L39.2727273,12 C39.2727273,11.3989091 38.784,10.9090909 38.1818182,10.9090909 L9.81818182,10.9090909 Z M38.1818182,55.6363636 L9.81818182,55.6363636 C8.01381818,55.6363636 6.54545455,54.168 6.54545455,52.3636364 L6.54545455,12 C6.54545455,10.1956364 8.01381818,8.72727273 9.81818182,8.72727273 L38.1818182,8.72727273 C39.9861818,8.72727273 41.4545455,10.1956364 41.4545455,12 L41.4545455,52.3636364 C41.4545455,54.168 39.9861818,55.6363636 38.1818182,55.6363636 L38.1818182,55.6363636 Z" id="Fill-4" fill="#000000"></path>
                <path d="M19.0472727,2.18181818 C17.568,2.18181818 16.3636364,3.38618182 16.3636364,4.86545455 L16.3636364,6.04363636 C16.3636364,7.52290909 17.568,8.72727273 19.0472727,8.72727273 L28.9527273,8.72727273 C30.4330909,8.72727273 31.6363636,7.52290909 31.6363636,6.04363636 L31.6363636,4.86545455 C31.6363636,3.38618182 30.4330909,2.18181818 28.9527273,2.18181818 L19.0472727,2.18181818 Z M28.9527273,10.9090909 L19.0472727,10.9090909 C16.3647273,10.9090909 14.1818182,8.72727273 14.1818182,6.04363636 L14.1818182,4.86545455 C14.1818182,2.18181818 16.3647273,0 19.0472727,0 L28.9527273,0 C31.6352727,0 33.8181818,2.18181818 33.8181818,4.86545455 L33.8181818,6.04363636 C33.8181818,8.72727273 31.6352727,10.9090909 28.9527273,10.9090909 L28.9527273,10.9090909 Z" id="Fill-6" fill="#000000"></path>
                <path d="M33.8181818,44.7272727 L14.1818182,44.7272727 C13.5785455,44.7272727 13.0909091,44.2385455 13.0909091,43.6363636 C13.0909091,43.0341818 13.5785455,42.5454545 14.1818182,42.5454545 L33.8181818,42.5454545 C34.4214545,42.5454545 34.9090909,43.0341818 34.9090909,43.6363636 C34.9090909,44.2385455 34.4214545,44.7272727 33.8181818,44.7272727" id="Fill-8" fill="#000000"></path>
                <path d="M33.8181818,50.1818182 L14.1818182,50.1818182 C13.5785455,50.1818182 13.0909091,49.6930909 13.0909091,49.0909091 C13.0909091,48.4887273 13.5785455,48 14.1818182,48 L33.8181818,48 C34.4214545,48 34.9090909,48.4887273 34.9090909,49.0909091 C34.9090909,49.6930909 34.4214545,50.1818182 33.8181818,50.1818182" id="Fill-10" fill="#000000"></path>
                <path d="M15.2727273,17.7986182 L15.2727273,26.3349818 C15.2727273,28.8800727 16.0494545,31.3302545 17.5189091,33.4193455 C19.08,35.6502545 21.3730909,37.3149818 24,38.1342545 C26.6269091,37.3149818 28.92,35.6502545 30.48,33.4215273 C31.9505455,31.3302545 32.7272727,28.8800727 32.7272727,26.3349818 L32.7272727,17.7986182 L24,15.3157091 L15.2727273,17.7986182 Z M24,40.3640727 C23.8996364,40.3640727 23.7981818,40.3498909 23.7021818,40.3215273 C20.4698182,39.4018909 17.6389091,37.3957091 15.732,34.6728 C14.0050909,32.2149818 13.0909091,29.3317091 13.0909091,26.3349818 L13.0909091,16.9749818 C13.0909091,16.4873455 13.4149091,16.0586182 13.884,15.9255273 L23.7021818,13.1328 C23.8952727,13.0771636 24.1047273,13.0771636 24.2978182,13.1328 L34.116,15.9255273 C34.5850909,16.0586182 34.9090909,16.4873455 34.9090909,16.9749818 L34.9090909,26.3349818 C34.9090909,29.3317091 33.9949091,32.2149818 32.2669091,34.6749818 C30.3610909,37.3957091 27.5301818,39.4018909 24.2978182,40.3215273 C24.2018182,40.3498909 24.1003636,40.3640727 24,40.3640727 L24,40.3640727 Z" id="Fill-12" fill="#000000"></path>
                <path d="M24,20.7272727 C22.1956364,20.7272727 20.7272727,22.1956364 20.7272727,24 C20.7272727,25.8043636 22.1956364,27.2727273 24,27.2727273 C25.8043636,27.2727273 27.2727273,25.8043636 27.2727273,24 C27.2727273,22.1956364 25.8043636,20.7272727 24,20.7272727 M24,29.4545455 C20.9923636,29.4545455 18.5454545,27.0076364 18.5454545,24 C18.5454545,20.9923636 20.9923636,18.5454545 24,18.5454545 C27.0076364,18.5454545 29.4545455,20.9923636 29.4545455,24 C29.4545455,27.0076364 27.0076364,29.4545455 24,29.4545455" id="Fill-14" fill="#000000"></path>
                <path d="M17.8263273,33.8405455 C19.3743273,35.8598182 21.5397818,37.3674545 23.9997818,38.1343636 C26.4597818,37.3674545 28.6263273,35.8587273 30.1743273,33.8394545 C29.8590545,32.9198182 29.3310545,32.0732727 28.6285091,31.3707273 C27.3925091,30.1358182 25.7485091,29.454 23.9997818,29.454 C21.1939636,29.454 18.7230545,31.2343636 17.8263273,33.8405455 M23.9997818,40.3630909 C23.8994182,40.3630909 23.7990545,40.35 23.7019636,40.3216364 C20.4696,39.402 17.6386909,37.3958182 15.7317818,34.6729091 C15.5485091,34.4110909 15.4885091,34.0827273 15.5703273,33.7729091 C16.5641455,29.946 20.0310545,27.2721818 23.9997818,27.2721818 C26.3310545,27.2721818 28.5226909,28.1809091 30.1710545,29.8281818 C31.2706909,30.9289091 32.0517818,32.2936364 32.4314182,33.7761818 C32.5099636,34.0849091 32.4499636,34.4121818 32.2677818,34.6729091 C30.3608727,37.3958182 27.5310545,39.402 24.2986909,40.3216364 C24.2016,40.35 24.1001455,40.3630909 23.9997818,40.3630909" id="Fill-16" fill="#000000"></path>
            </g>
        </g>
    </g>
</svg>