<?xml version="1.0" encoding="UTF-8"?>
<svg width="18px" height="18px" viewBox="0 0 18 18" version="1.1" xmlns="http://www.w3.org/2000/svg" xmlns:xlink="http://www.w3.org/1999/xlink">
    <!-- Generator: Sketch 58 (84663) - https://sketch.com -->
    <title>Group 3 Copy 4</title>
    <desc>Created with Sketch.</desc>
    <defs>
        <polygon id="path-1" points="3.82978723e-05 0 18 0 18 17.9999617 3.82978723e-05 17.9999617"></polygon>
    </defs>
    <g id="Page-1" stroke="none" stroke-width="1" fill="none" fill-rule="evenodd">
        <g id="Products" transform="translate(-1059.000000, -1081.000000)">
            <g id="Group-3-Copy-4" transform="translate(1059.000000, 1081.000000)">
                <mask id="mask-2" fill="white">
                    <use xlink:href="#path-1"></use>
                </mask>
                <g id="Clip-2"></g>
                <path d="M10.0034426,9.91911064 C10.0034426,9.91911064 9.90195319,9.95549362 9.90195319,10.0148553 L9.90195319,10.8325149 C9.90195319,11.3989404 9.4427617,11.8579404 8.87652766,11.8579404 C8.31010213,11.8579404 7.85110213,11.3989404 7.85110213,10.8325149 L7.85110213,10.0148553 C7.86029362,9.0846 8.46214468,8.2638766 9.34644255,7.97549362 C9.95748511,7.77174894 10.3617191,7.19057872 10.3404638,6.54698298 C10.2991021,5.76072766 9.65531489,5.14106809 8.86791064,5.1299617 C8.31048511,5.13245106 7.80361277,5.4539617 7.56386809,5.95719574 C7.31799574,6.46751489 6.70484681,6.68179149 6.19471915,6.43591915 C5.6844,6.19004681 5.4701234,5.57708936 5.71599574,5.06677021 C6.29295319,3.85770638 7.51082553,3.0852383 8.8506766,3.07911064 L8.87174043,3.07911064 C10.7667191,3.09002553 12.316634,4.59206809 12.3874851,6.48570638 C12.4397617,8.03045106 11.4708255,9.42602553 10.0053574,9.91719574 L10.0034426,9.91911064 Z M8.87748511,14.9208128 C8.30837872,14.9208128 7.84727234,14.4597064 7.84727234,13.8906 C7.84727234,13.3216851 8.30837872,12.8603872 8.87748511,12.8603872 C9.4464,12.8603872 9.90769787,13.3216851 9.90769787,13.8906 C9.90654894,14.4591319 9.44601702,14.9196638 8.87748511,14.9208128 L8.87748511,14.9208128 Z M9.0000383,-3.82978723e-05 C4.02935745,-3.82978723e-05 3.82978723e-05,4.02947234 3.82978723e-05,8.9999617 C3.82978723e-05,13.9704511 4.02935745,17.9999617 9.0000383,17.9999617 C13.9705277,17.9999617 18.0000383,13.9704511 18.0000383,8.9999617 C18.0000383,4.02947234 13.9705277,-3.82978723e-05 9.0000383,-3.82978723e-05 L9.0000383,-3.82978723e-05 Z" id="Fill-1" fill="#E4E5EB" mask="url(#mask-2)"></path>
            </g>
        </g>
    </g>
</svg>