<?xml version="1.0" encoding="UTF-8"?>
<svg width="40px" height="40px" viewBox="0 0 40 40" version="1.1" xmlns="http://www.w3.org/2000/svg" xmlns:xlink="http://www.w3.org/1999/xlink">
    <!-- Generator: Sketch 58 (84663) - https://sketch.com -->
    <title>instagram</title>
    <desc>Created with Sketch.</desc>
    <g id="Page-1" stroke="none" stroke-width="1" fill="none" fill-rule="evenodd">
        <g id="Homepage" transform="translate(-545.000000, -4224.000000)">
            <g id="instagram" transform="translate(545.704111, 4224.000000)">
                <rect id="BG" fill="#3A3C4C" x="0" y="0" width="39.0720391" height="39.0720391" rx="4"></rect>
                <g id="logo-instagram" transform="translate(11.536020, 11.536020)" fill="#A7ABBD" fill-rule="nonzero">
                    <circle id="Oval" cx="12.145" cy="3.892" r="1"></circle>
                    <path d="M8,12 C5.794,12 4,10.206 4,8 C4,5.794 5.794,4 8,4 C10.206,4 12,5.794 12,8 C12,10.206 10.206,12 8,12 Z M8,6 C6.897,6 6,6.897 6,8 C6,9.103 6.897,10 8,10 C9.103,10 10,9.103 10,8 C10,6.897 9.103,6 8,6 Z" id="Shape"></path>
                    <path d="M12,16 L4,16 C1.944,16 0,14.056 0,12 L0,4 C0,1.944 1.944,0 4,0 L12,0 C14.056,0 16,1.944 16,4 L16,12 C16,14.056 14.056,16 12,16 Z M4,2 C3.065,2 2,3.065 2,4 L2,12 C2,12.953 3.047,14 4,14 L12,14 C12.935,14 14,12.935 14,12 L14,4 C14,3.065 12.935,2 12,2 L4,2 Z" id="Shape"></path>
                </g>
            </g>
        </g>
    </g>
</svg>