<?xml version="1.0" encoding="UTF-8"?>
<svg width="30px" height="30px" viewBox="0 0 30 30" version="1.1" xmlns="http://www.w3.org/2000/svg" xmlns:xlink="http://www.w3.org/1999/xlink">
    <!-- Generator: Sketch 58 (84663) - https://sketch.com -->
    <title>loading</title>
    <desc>Created with Sketch.</desc>
    <defs>
        <polygon id="path-1" points="0 0 30 0 30 29.1666667 0 29.1666667"></polygon>
    </defs>
    <g id="Page-1" stroke="none" stroke-width="1" fill="none" fill-rule="evenodd" opacity="0.4">
        <g id="Blog" transform="translate(-705.000000, -2475.000000)">
            <g id="loading" transform="translate(720.000000, 2489.583333) scale(-1, 1) translate(-720.000000, -2489.583333) translate(705.000000, 2475.000000)">
                <mask id="mask-2" fill="white">
                    <use xlink:href="#path-1"></use>
                </mask>
                <g id="Clip-2"></g>
                <path d="M7.54943257,3.69551835 L10.3575672,6.99331424 C11.7641156,8.64465698 9.23025341,10.7396175 7.8241561,9.08827475 L5.01602144,5.79047886 C3.60947303,4.13913613 6.14333526,2.04417561 7.54943257,3.69551835 M1.93135882,11.0547728 L6.23355645,11.8024332 C8.38803856,12.1767079 7.81378066,15.386047 5.65929855,15.0117723 L1.35710093,14.2641118 C-0.797381184,13.8898371 -0.223123286,10.6804981 1.93135882,11.0547728 M2.4280265,20.2507293 L6.21145226,18.0979829 C8.10609733,17.020054 9.75985182,19.8426721 7.86520674,20.9206011 L4.08178098,23.072903 C2.18713591,24.1508319 0.533381425,21.3286583 2.4280265,20.2507293 M8.80756711,26.9801177 L10.3016301,22.9351059 C11.0500149,20.9094884 14.1576839,22.0238669 13.4097502,24.0499289 L11.9152361,28.0949407 C11.1673024,30.1205582 8.05918231,29.0061796 8.80756711,26.9801177 M18.0841103,28.0949407 L16.5900473,24.0499289 C15.8416625,22.0238669 18.9497826,20.9094884 19.6981674,22.9351059 L21.1922304,26.9801177 C21.9406152,29.0061796 18.8324951,30.1205582 18.0841103,28.0949407 M25.9180165,23.072903 L22.1345908,20.9206011 C20.2399457,19.8426721 21.8937002,17.0204985 23.7883452,18.0984274 L27.571771,20.2507293 C29.4664161,21.3286583 27.8126616,24.1508319 25.9180165,23.072903 M28.6426966,14.2645564 L24.340499,15.0117723 C22.1860168,15.3864915 21.6117589,12.1767079 23.7662411,11.8024332 L28.0684387,11.0547728 C30.2229659,10.6804981 30.7976298,13.8902816 28.6426966,14.2645564 M24.9842272,5.79047886 L22.1760925,9.08827475 C20.7695441,10.7396175 18.236133,8.64510148 19.6422303,6.99331424 L22.4503649,3.69596285 C23.8569585,2.04417561 26.3903245,4.13913613 24.9842272,5.79047886 M16.6536532,1.61656008 L16.6536532,5.92160836 C16.6536532,8.07746631 13.3461443,8.07746631 13.3461443,5.92160836 L13.3461443,1.61656008 C13.3461443,-0.538853359 16.6536532,-0.538853359 16.6536532,1.61656008" id="Fill-1" fill="#000000" mask="url(#mask-2)"></path>
            </g>
        </g>
    </g>
</svg>