<?xml version="1.0" encoding="UTF-8"?>
<svg width="25px" height="25px" viewBox="0 0 25 25" version="1.1" xmlns="http://www.w3.org/2000/svg" xmlns:xlink="http://www.w3.org/1999/xlink">
    <!-- Generator: Sketch 58 (84663) - https://sketch.com -->
    <title>medical</title>
    <desc>Created with Sketch.</desc>
    <defs>
        <polygon id="path-1" points="0 0.256701031 25 0.256701031 25 25 0 25"></polygon>
    </defs>
    <g id="Page-1" stroke="none" stroke-width="1" fill="none" fill-rule="evenodd">
        <g id="Homepage" transform="translate(-1068.000000, -1366.000000)">
            <g id="medical" transform="translate(1068.000000, 1366.000000)">
                <g id="Group-3">
                    <mask id="mask-2" fill="white">
                        <use xlink:href="#path-1"></use>
                    </mask>
                    <g id="Clip-2"></g>
                    <path d="M22.9166667,12.627732 L17.8385417,12.627732 C17.1919271,12.6264433 16.6682292,12.1078866 16.6666667,11.4679381 L16.6666667,5.41123711 L19.7265625,5.41123711 C21.4872396,5.41407216 22.9138021,6.82592784 22.9166667,8.56845361 L22.9166667,12.627732 Z M22.9166667,18.813299 C22.9166667,19.3826289 22.4502604,19.8442268 21.875,19.8442268 L21.7265625,19.8442268 C21.1630208,17.6480928 18.9070312,16.3197423 16.6877604,16.8774742 C15.2145833,17.2478351 14.0643229,18.3864948 13.6901042,19.8442268 L11.3098958,19.8442268 C10.7463542,17.6480928 8.49036458,16.3197423 6.27109375,16.8774742 C4.79791667,17.2478351 3.64765625,18.3864948 3.2734375,19.8442268 L3.125,19.8442268 C2.54973958,19.8442268 2.08333333,19.3826289 2.08333333,18.813299 L2.08333333,3.34938144 C2.08333333,2.78005155 2.54973958,2.31845361 3.125,2.31845361 L13.5416667,2.31845361 C14.1169271,2.31845361 14.5833333,2.78005155 14.5833333,3.34938144 L14.5833333,11.4679381 C14.5861979,13.2460309 16.0419271,14.6867526 17.8385417,14.6895876 L22.9166667,14.6895876 L22.9166667,18.813299 Z M17.7083333,22.9370103 C16.5578125,22.9370103 15.625,22.0138144 15.625,20.8751546 C15.625,19.7364948 16.5578125,18.813299 17.7083333,18.813299 C18.8588542,18.813299 19.7916667,19.7364948 19.7916667,20.8751546 C19.7916667,22.0138144 18.8588542,22.9370103 17.7083333,22.9370103 L17.7083333,22.9370103 Z M7.29166667,22.9370103 C6.14114583,22.9370103 5.20833333,22.0138144 5.20833333,20.8751546 C5.20833333,19.7364948 6.14114583,18.813299 7.29166667,18.813299 C8.4421875,18.813299 9.375,19.7364948 9.375,20.8751546 C9.375,22.0138144 8.4421875,22.9370103 7.29166667,22.9370103 L7.29166667,22.9370103 Z M19.7265625,3.34938144 L16.6666667,3.34938144 C16.6666667,1.64139175 15.2674479,0.256597938 13.5416667,0.256597938 L3.125,0.256597938 C1.39921875,0.256597938 0,1.64139175 0,3.34938144 L0,18.813299 C0,20.5212887 1.39921875,21.9060825 3.125,21.9060825 L3.2734375,21.9060825 C3.83697917,24.1022165 6.09296875,25.430567 8.31223958,24.8728351 C9.78541667,24.5024742 10.9356771,23.3638144 11.3098958,21.9060825 L13.6901042,21.9060825 C14.2536458,24.1022165 16.5096354,25.430567 18.7289063,24.8728351 C20.2020833,24.5024742 21.3523438,23.3638144 21.7265625,21.9060825 L21.875,21.9060825 C23.6007813,21.9060825 25,20.5212887 25,18.813299 L25,8.56845361 C24.9971354,5.68726804 22.6380208,3.35221649 19.7265625,3.34938144 L19.7265625,3.34938144 Z" id="Fill-1" fill-opacity="0.5" fill="#001F5F" mask="url(#mask-2)"></path>
                </g>
                <path d="M12,9 L10,9 L10,7 C10,6.44775 9.55225,6 9,6 C8.44775,6 8,6.44775 8,7 L8,9 L6,9 C5.44775,9 5,9.44775 5,10 C5,10.55225 5.44775,11 6,11 L8,11 L8,13 C8,13.55225 8.44775,14 9,14 C9.55225,14 10,13.55225 10,13 L10,11 L12,11 C12.55225,11 13,10.55225 13,10 C13,9.44775 12.55225,9 12,9" id="Fill-4" fill-opacity="0.5" fill="#001F5F"></path>
            </g>
        </g>
    </g>
</svg>