<?xml version="1.0" encoding="UTF-8"?>
<svg width="39px" height="50px" viewBox="0 0 39 50" version="1.1" xmlns="http://www.w3.org/2000/svg" xmlns:xlink="http://www.w3.org/1999/xlink">
    <!-- Generator: Sketch 58 (84663) - https://sketch.com -->
    <title>mod</title>
    <desc>Created with Sketch.</desc>
    <defs>
        <polygon id="path-1" points="0 0.00263157895 39 0.00263157895 39 49.122807 0 49.122807"></polygon>
    </defs>
    <g id="Page-1" stroke="none" stroke-width="1" fill="none" fill-rule="evenodd">
        <g id="About_us" transform="translate(-291.000000, -1832.000000)">
            <g id="mod" transform="translate(291.000000, 1832.000000)">
                <g id="Group-3" transform="translate(0.000000, 0.875000)">
                    <mask id="mask-2" fill="white">
                        <use xlink:href="#path-1"></use>
                    </mask>
                    <g id="Clip-2"></g>
                    <path d="M37.2272727,23.8247368 C37.2272727,34.6317544 29.9502273,44.2633333 19.5,47.3335088 C9.04977273,44.2633333 1.77272727,34.6317544 1.77272727,23.8247368 L1.77272727,6.79842105 L19.5,1.78964912 L37.2272727,6.79842105 L37.2272727,23.8247368 Z M38.3529545,5.29842105 L19.7393182,0.0352631579 C19.5886364,-0.00859649123 19.4113636,-0.00859649123 19.2606818,0.0352631579 L0.647045455,5.29842105 C0.265909091,5.40368421 0,5.74578947 0,6.14052632 L0,23.8247368 C0,35.4914035 7.91522727,45.8861404 19.2606818,49.0878947 C19.3315909,49.1142105 19.4202273,49.1229825 19.5,49.1229825 C19.5797727,49.1229825 19.6684091,49.1142105 19.7393182,49.0878947 C31.0847727,45.8861404 39,35.4914035 39,23.8247368 L39,6.14052632 C39,5.74578947 38.7340909,5.40368421 38.3529545,5.29842105 L38.3529545,5.29842105 Z" id="Fill-1" fill="#FFFFFF" mask="url(#mask-2)"></path>
                </g>
                <path d="M27.2202273,20.4276316 C27.5659091,20.7697368 27.5659091,21.3311404 27.2202273,21.6732456 L18.3565909,30.4451754 C18.1793182,30.6118421 17.9577273,30.6995614 17.7272727,30.6995614 C17.4968182,30.6995614 17.2752273,30.6118421 17.0979545,30.4451754 L11.7797727,25.1820175 C11.4340909,24.8399123 11.4340909,24.2785088 11.7797727,23.9364035 C12.1254545,23.5942982 12.6927273,23.5942982 13.0384091,23.9364035 L17.7272727,28.5855263 L25.9615909,20.4276316 C26.3072727,20.0855263 26.8745455,20.0855263 27.2202273,20.4276316 L27.2202273,20.4276316 Z M4.43181818,9.66447368 L4.43181818,24.6995614 C4.43181818,34.0855263 10.5743182,42.4714912 19.5,45.4451754 C28.4256818,42.4714912 34.5681818,34.0855263 34.5681818,24.6995614 L34.5681818,9.66447368 L19.5,5.40131579 L4.43181818,9.66447368 Z" id="Fill-4" fill="#FFFFFF"></path>
            </g>
        </g>
    </g>
</svg>