<?xml version="1.0" encoding="UTF-8"?>
<svg width="46px" height="46px" viewBox="0 0 46 46" version="1.1" xmlns="http://www.w3.org/2000/svg" xmlns:xlink="http://www.w3.org/1999/xlink">
    <!-- Generator: Sketch 58 (84663) - https://sketch.com -->
    <title>mod2</title>
    <desc>Created with Sketch.</desc>
    <g id="Page-1" stroke="none" stroke-width="1" fill="none" fill-rule="evenodd">
        <g id="About_us" transform="translate(-697.000000, -1835.000000)" fill="#FFFFFF">
            <g id="mod2" transform="translate(697.000000, 1835.000000)">
                <path d="M41.25,12.6265 C41.17,12.6165 41.08,12.6165 41,12.6165 L40.83,12.6165 C40.97,12.6165 41.12,12.6265 41.26,12.6365 L41.25,12.6265 Z" id="Fill-1"></path>
                <path d="M41.25,12.6265 C41.17,12.6165 41.08,12.6165 41,12.6165 L40.83,12.6165 C40.97,12.6165 41.12,12.6265 41.26,12.6365 L41.25,12.6265 Z" id="Fill-3"></path>
                <path d="M44,17.6167 L44,24.2867 L41,23.4367 L41,22.6167 C41,22.0667 40.55,21.6167 40,21.6167 C38.35,21.6167 37,20.2667 37,18.6167 C37,18.0667 36.55,17.6167 36,17.6167 L8,17.6167 C7.45,17.6167 7,18.0667 7,18.6167 C7,20.2667 5.65,21.6167 4,21.6167 C3.45,21.6167 3,22.0667 3,22.6167 L3,32.6167 C3,33.1667 3.45,33.6167 4,33.6167 C5.65,33.6167 7,34.9667 7,36.6167 C7,37.1667 7.45,37.6167 8,37.6167 L28.32,37.6167 L28.32,37.6267 C28.34,37.7467 28.37,37.8567 28.4,37.9667 C28.46,38.2267 28.53,38.4867 28.62,38.7467 C28.72,39.0667 28.83,39.3867 28.96,39.6967 L28.96,39.7067 C29.08,39.9967 29.21,40.2867 29.35,40.5667 C29.35,40.5867 29.36,40.5967 29.37,40.6167 L3,40.6167 C1.48,40.6167 0.2,39.4867 0.02,37.9767 C0.01,37.8567 0,37.7467 0,37.6167 L0,17.6167 C0,16.1267 1.07,14.8867 2.53,14.6567 C2.68,14.6367 2.84,14.6167 3,14.6167 L40.83,14.6167 C41.62,14.6167 42.37,14.9267 42.95,15.4967 C43.06,15.5967 43.19,15.6767 43.32,15.7167 C43.59,16.0467 43.79,16.4367 43.9,16.8367 C43.96,17.0967 44,17.3567 44,17.6167" id="Fill-5"></path>
                <path d="M37.25,22.7866 L28.73,25.2166 C28.68,25.2266 28.63,25.2466 28.59,25.2766 C27.63,22.5666 25.04,20.6166 22,20.6166 C18.14,20.6166 15,23.7566 15,27.6166 C15,31.4766 18.14,34.6166 22,34.6166 C24.54,34.6166 26.78,33.2566 28,31.2166 L28,34.7566 C28,35.0366 28.01,35.3166 28.03,35.5976 L28.03,35.6166 L8.9,35.6166 C8.5,33.6566 6.96,32.1166 5,31.7166 L5,23.5166 C6.96,23.1166 8.5,21.5766 8.9,19.6166 L35.1,19.6166 C35.37,20.9366 36.16,22.0666 37.25,22.7866" id="Fill-7"></path>
                <path d="M27,27.6167 C27,30.3767 24.76,32.6167 22,32.6167 C19.24,32.6167 17,30.3767 17,27.6167 C17,24.8567 19.24,22.6167 22,22.6167 C24.76,22.6167 27,24.8567 27,27.6167" id="Fill-9"></path>
                <path d="M43.1201,15.4868 C42.5401,14.9258 41.7901,14.6168 41.0001,14.6168 L40.8301,14.6168 C41.6201,14.6168 42.3701,14.9258 42.9501,15.4968 C43.0591,15.5968 43.1901,15.6758 43.3201,15.7158 C43.2601,15.6358 43.1901,15.5568 43.1201,15.4868" id="Fill-11"></path>
                <path d="M41.25,12.6265 C41.17,12.6165 41.08,12.6165 41,12.6165 L37.79,12.6165 L34.74,7.3365 C34.46,6.8565 33.85,6.6965 33.37,6.9665 C32.68,7.3665 31.87,7.4775 31.1,7.2675 C30.32,7.0575 29.68,6.5575 29.28,5.8665 C29.14,5.6365 28.93,5.4665 28.67,5.3975 C28.41,5.3365 28.14,5.3665 27.91,5.4965 L15.58,12.6165 L9.58,12.6165 L30.74,0.4065 C31.44,-0.0035 32.25,-0.1025 33.02,0.1065 C33.79,0.3165 34.44,0.8075 34.83,1.5065 L41.25,12.6265 Z" id="Fill-13"></path>
                <path d="M33.46,9.1167 L33.45,9.1167 L34.9,11.6167 L33.46,9.1167 Z M33.46,9.1167 L33.45,9.1167 L34.9,11.6167 L33.46,9.1167 Z M33.46,9.1167 L33.45,9.1167 L34.9,11.6167 L33.46,9.1167 Z M33.46,9.1167 L33.45,9.1167 L34.9,11.6167 L33.46,9.1167 Z" id="Fill-15"></path>
                <path d="M35.4805,12.6167 L19.5895,12.6167 L28.1295,7.6867 C28.7695,8.4067 29.6205,8.9367 30.5805,9.1967 C31.5405,9.4567 32.5305,9.4267 33.4505,9.1167 L34.9005,11.6167 L35.4805,12.6167 Z" id="Fill-17"></path>
                <path d="M42.71,33.3267 L37.71,38.3267 C37.51,38.5167 37.26,38.6167 37,38.6167 C36.74,38.6167 36.49,38.5167 36.29,38.3267 L33.79,35.8267 C33.4,35.4367 33.4,34.7967 33.79,34.4067 C34.18,34.0167 34.82,34.0167 35.21,34.4067 L37,36.2067 L41.29,31.9067 C41.68,31.5167 42.32,31.5167 42.71,31.9067 C43.1,32.2967 43.1,32.9367 42.71,33.3267 L42.71,33.3267 Z M44.74,26.5667 L39.731,25.1467 L38,24.6567 L30,26.9267 L30,34.7567 C30,35.3267 30.05,35.9067 30.14,36.4567 C30.38,38.1267 30.99,39.6667 31.94,41.0467 C31.96,41.0767 31.981,41.1067 32,41.1467 C32.01,41.1567 32.02,41.1667 32.02,41.1867 C32.06,41.2367 32.1,41.2867 32.14,41.3477 C32.58,41.9567 33.05,42.4967 33.55,42.9667 C33.8,43.2167 34.05,43.4067 34.29,43.6067 C35.4,44.4967 36.65,45.1567 38,45.5767 C42.72,44.1067 46,39.6967 46,34.7567 L46,26.9267 L44.74,26.5667 Z" id="Fill-19"></path>
            </g>
        </g>
    </g>
</svg>