<?xml version="1.0" encoding="UTF-8"?>
<svg width="50px" height="50px" viewBox="0 0 50 50" version="1.1" xmlns="http://www.w3.org/2000/svg" xmlns:xlink="http://www.w3.org/1999/xlink">
    <!-- Generator: Sketch 58 (84663) - https://sketch.com -->
    <title>mod3</title>
    <desc>Created with Sketch.</desc>
    <defs>
        <polygon id="path-1" points="0 0.003 49.587 0.003 49.587 50 0 50"></polygon>
    </defs>
    <g id="Page-1" stroke="none" stroke-width="1" fill="none" fill-rule="evenodd">
        <g id="About_us" transform="translate(-1105.000000, -1832.000000)">
            <g id="mod3" transform="translate(1105.000000, 1831.000000)">
                <g id="Group-3" transform="translate(0.000000, 0.997500)">
                    <mask id="mask-2" fill="white">
                        <use xlink:href="#path-1"></use>
                    </mask>
                    <g id="Clip-2"></g>
                    <path d="M47.29,46.29 C46.9,46.68 46.269,46.68 45.88,46.29 L39.94,40.35 C39.74,40.16 39.49,40.06 39.23,40.06 C39.03,40.06 38.83,40.12 38.66,40.24 C37.01,41.38 35.07,41.99 33,42 C31.44,42 29.87,41.63 28.48,40.93 C25.1,39.21 23,35.79 23,32 C23,26.49 27.49,22 33,22 C34.92,22 36.79,22.55 38.4,23.58 C39.73,24.44 40.85,25.61 41.65,26.96 C41.66,26.97 41.66,26.98 41.67,26.99 C42.54,28.5 43,30.23 43,32 C43,34.04 42.39,36 41.24,37.66 C40.96,38.06 41.01,38.59 41.35,38.94 L47.29,44.88 C47.68,45.27 47.68,45.9 47.29,46.29 M22,47.96 C10.21,44.46 2,33.48 2,21.16 L2,7.75 L22,2.04 L42,7.75 L42,21.16 C42,22.08 41.95,23 41.86,23.91 C41.72,23.75 41.57,23.6 41.42,23.46 C41.29,23.33 41.16,23.21 41.03,23.09 C40.72,22.81 40.4,22.54 40.06,22.3 C40.03,22.27 40,22.25 39.97,22.23 C39.99,21.88 40,21.52 40,21.16 L40,10.02 C40,9.57 39.7,9.18 39.269,9.06 L22.27,4.2 C22.1,4.15 21.9,4.15 21.73,4.2 L4.73,9.06 C4.3,9.18 4,9.57 4,10.02 L4,21.16 C4,32.31 11.11,42.2 21.68,45.76 C21.78,45.79 21.89,45.81 22,45.81 C22.11,45.81 22.22,45.79 22.32,45.76 C23.34,45.42 24.34,45.01 25.3,44.54 C25.55,44.42 25.79,44.3 26.019,44.18 C26.26,44.05 26.5,43.93 26.73,43.79 C26.99,43.66 27.24,43.51 27.49,43.35 C27.7,43.22 27.9,43.09 28.11,42.96 L28.12,42.96 C28.17,42.99 28.24,43.02 28.3,43.04 C28.48,43.12 28.68,43.2 28.87,43.27 C29.09,43.35 29.31,43.42 29.54,43.49 C29.76,43.56 29.99,43.62 30.22,43.67 C30.32,43.7 30.43,43.72 30.53,43.74 C27.96,45.62 25.1,47.03 22,47.96 M48.71,43.46 L43.34,38.09 C44.43,36.26 45,34.17 45,32 C45,30 44.5,28.03 43.55,26.28 C43.85,24.6 44,22.87 44,21.16 L44,7 C44,6.55 43.7,6.16 43.269,6.04 L22.27,0.04 C22.1,-0.01 21.9,-0.01 21.73,0.04 L0.73,6.04 C0.3,6.16 0,6.55 0,7 L0,21.16 C0,34.46 8.93,46.31 21.73,49.96 C21.81,49.99 21.91,50 22,50 C22.09,50 22.19,49.99 22.28,49.96 C26.42,48.77 30.18,46.77 33.43,43.99 C35.44,43.92 37.38,43.36 39.09,42.34 L44.46,47.71 C45.05,48.29 45.82,48.58 46.58,48.58 C47.35,48.58 48.12,48.29 48.71,47.71 C49.88,46.54 49.88,44.63 48.71,43.46" id="Fill-1" fill="#FFFFFF" mask="url(#mask-2)"></path>
                </g>
                <path d="M33,24.9975 C28.59,24.9975 25,28.5875 25,32.9975 C25,37.4075 28.59,40.9975 33,40.9975 C37.41,40.9975 41,37.4075 41,32.9975 C41,28.5875 37.41,24.9975 33,24.9975" id="Fill-4" fill="#FFFFFF"></path>
            </g>
        </g>
    </g>
</svg>