<?xml version="1.0" encoding="UTF-8"?>
<svg width="20px" height="28px" viewBox="0 0 20 28" version="1.1" xmlns="http://www.w3.org/2000/svg" xmlns:xlink="http://www.w3.org/1999/xlink">
    <!-- Generator: Sketch 58 (84663) - https://sketch.com -->
    <title>motor</title>
    <desc>Created with Sketch.</desc>
    <defs>
        <polygon id="path-1" points="2.16076468e-05 -3.55271368e-15 19.998 -3.55271368e-15 19.998 28.0007 2.16076468e-05 28.0007"></polygon>
    </defs>
    <g id="Page-1" stroke="none" stroke-width="1" fill="none" fill-rule="evenodd">
        <g id="Homepage" transform="translate(-1070.000000, -1271.000000)">
            <g id="motor" transform="translate(1070.000000, 1271.000000)">
                <mask id="mask-2" fill="white">
                    <use xlink:href="#path-1"></use>
                </mask>
                <g id="Clip-2"></g>
                <path d="M10.0201,5.998 C10.4971,5.99 10.9711,5.812 11.3291,5.492 C11.7521,5.115 12.0041,4.554 11.9991,3.98 C11.9941,3.493 11.8041,3.011 11.4751,2.651 C11.1041,2.246 10.5621,2.004 10.0121,2 L9.9951,2 C9.3461,2.001 8.7121,2.335 8.3431,2.878 C7.9301,3.485 7.8841,4.325 8.2571,4.983 C8.5421,5.486 9.0551,5.857 9.6261,5.965 C9.7341,5.985 9.8431,5.996 9.9531,5.998 L9.9991,5.998 L10.0201,5.998 Z M7.9991,12 L5.9991,12 C5.7081,11.996 5.4221,11.866 5.2351,11.645 C5.0001,11.367 4.9341,10.958 5.0751,10.617 C5.1721,10.384 5.3601,10.19 5.5901,10.087 C5.7181,10.03 5.8591,10.002 5.9991,10 L7.9991,10 L8.0271,10 C8.3541,10.014 8.6701,10.188 8.8451,10.468 C9.0491,10.791 9.0461,11.233 8.8301,11.555 C8.6591,11.812 8.3631,11.981 8.0551,11.998 C8.0301,11.999 8.0241,11.999 7.9991,12 L7.9991,12 Z M9.8601,7.995 C8.5701,7.995 7.2791,7.996 5.9891,8 C5.4411,8.002 4.8951,8.156 4.4291,8.443 C3.8451,8.802 3.3901,9.366 3.1651,10.011 C3.0561,10.325 3.0001,10.657 2.9991,10.99 C2.9911,13.996 2.9911,17.003 2.9991,20.009 C3.0021,20.798 3.3281,21.578 3.8901,22.134 C4.4441,22.681 5.2151,22.999 5.9991,23 L6.9971,23 C6.9971,21.997 6.9971,20.995 6.9991,19.993 C7.0021,19.38 7.3021,18.769 7.8061,18.394 C8.1471,18.141 8.5681,18.002 8.9931,18 C9.6631,17.999 10.3341,17.999 11.0051,18 C11.6261,18.002 12.2391,18.309 12.6121,18.817 C12.8601,19.155 12.9971,19.568 12.9991,19.993 C13.0001,20.996 13.0011,21.998 13.0011,23 L14.0091,23 C14.7751,22.996 15.5331,22.691 16.0881,22.153 C16.6581,21.6 16.9951,20.818 16.9991,20.009 C17.0061,17.003 17.0061,13.996 16.9991,10.99 C16.9961,10.241 16.7031,9.498 16.1891,8.95 C15.6321,8.355 14.8301,8.003 14.0091,8 C12.7181,7.996 11.4281,7.995 10.1371,7.995 C10.0451,7.998 9.9521,7.998 9.8601,7.995 L9.8601,7.995 Z M11.0001,23.97 C11.0001,22.647 10.9991,21.324 10.9991,20 C10.3321,19.999 9.6661,20 9.0001,20 L8.9991,20 C8.9971,21.331 8.9971,22.663 8.9981,23.994 L8.9981,24.013 C8.9981,24.675 8.9991,25.337 8.9991,25.999 L8.9991,26 C9.6651,26.001 10.3321,26 10.9981,26 L10.9991,26 C11.0001,25.344 11.0001,24.689 11.0001,24.034 C10.9991,24.013 10.9991,23.991 11.0001,23.97 L11.0001,23.97 Z M6.2001,2.746 C6.2041,2.733 6.2091,2.719 6.2131,2.705 C6.4801,1.927 6.9951,1.234 7.6631,0.753 C8.3131,0.285 9.0991,0.019 9.9091,0.001 C9.9351,-3.55271368e-15 9.9601,-3.55271368e-15 9.9861,-3.55271368e-15 L10.0051,-3.55271368e-15 C10.8381,0.002 11.6621,0.268 12.3341,0.753 C13.0141,1.242 13.5301,1.949 13.7961,2.748 L14.3211,2.264 C14.3841,2.211 14.3991,2.195 14.4691,2.151 C14.5741,2.086 14.6921,2.04 14.8141,2.017 C14.8951,2.002 14.9161,2.003 14.9991,2 L18.9991,2 C19.0311,2.001 19.0641,2.003 19.0971,2.004 C19.1291,2.009 19.1621,2.012 19.1941,2.019 C19.5781,2.095 19.9021,2.413 19.9801,2.805 C20.0431,3.126 19.9371,3.475 19.7061,3.707 C19.5671,3.846 19.3861,3.942 19.1941,3.98 C19.1081,3.997 19.0861,3.995 18.9991,4 L15.3891,4 L13.6731,5.581 C13.6121,5.722 13.5441,5.859 13.4681,5.991 L13.4631,5.999 C13.6441,5.999 13.8261,5.999 14.0071,6 C15.0551,6.002 16.0931,6.34 16.9371,6.953 C17.7761,7.563 18.4191,8.44 18.7461,9.425 C18.9131,9.929 18.9981,10.46 18.9991,10.992 C19.0011,13.997 19.0011,17.002 18.9991,20.008 C18.9961,21.045 18.6641,22.079 18.0581,22.919 C17.4471,23.768 16.5641,24.418 15.5731,24.746 C15.0691,24.914 14.5381,24.998 14.0071,25 L13.9991,25 L13.0001,25 C13.0001,25.335 12.9991,25.671 12.9991,26.006 C12.9961,26.619 12.6961,27.23 12.1911,27.605 C11.8511,27.858 11.4301,27.998 11.0051,28 C10.3341,28.00075 9.6631,28.00075 8.9931,28 C8.3711,27.997 7.7591,27.691 7.3861,27.182 C7.1381,26.845 7.0011,26.431 6.9991,26.006 C6.9981,25.671 6.9981,25.335 6.9981,25 L5.9911,25 C4.9301,24.997 3.8711,24.648 3.0191,24.015 C1.8381,23.138 1.0731,21.737 1.0041,20.232 C1.0011,20.157 0.9991,20.083 0.9991,20.008 C0.9971,17.002 0.9971,13.997 0.9991,10.992 C1.0011,9.96 1.3271,8.941 1.9221,8.105 C2.7141,6.99 3.9681,6.222 5.3481,6.042 C5.5611,6.014 5.7761,6 5.9911,6 C6.1721,5.999 6.3541,5.999 6.5351,5.999 C6.4601,5.871 6.3931,5.738 6.3331,5.601 C6.3301,5.594 6.3271,5.587 6.3241,5.58 L4.6081,4 L0.9991,4 L0.9011,3.995 C0.8681,3.99 0.8361,3.987 0.8041,3.98 C0.4821,3.916 0.2001,3.685 0.0751,3.382 C-0.0379,3.111 -0.0229,2.79 0.1171,2.528 C0.2561,2.269 0.5141,2.076 0.8041,2.019 C0.8891,2.002 0.9121,2.004 0.9991,2 L4.9991,2 C5.0301,2.001 5.0611,2.003 5.0921,2.004 C5.1731,2.015 5.1951,2.016 5.2741,2.038 C5.3941,2.073 5.5061,2.129 5.6051,2.204 C5.6301,2.223 5.6531,2.244 5.6761,2.264 L6.2001,2.746 Z" id="Fill-1" fill-opacity="0.5" fill="#001F5F" mask="url(#mask-2)"></path>
            </g>
        </g>
    </g>
</svg>