<?xml version="1.0" encoding="UTF-8"?>
<svg width="16px" height="16px" viewBox="0 0 16 16" version="1.1" xmlns="http://www.w3.org/2000/svg" xmlns:xlink="http://www.w3.org/1999/xlink">
    <!-- Generator: Sketch 58 (84663) - https://sketch.com -->
    <title>phone</title>
    <desc>Created with Sketch.</desc>
    <defs>
        <polygon id="path-1" points="0.0506871795 0.156410256 15.3249231 0.156410256 15.3249231 15.1794872 0.0506871795 15.1794872"></polygon>
    </defs>
    <g id="Page-1" stroke="none" stroke-width="1" fill="none" fill-rule="evenodd" opacity="0.4">
        <g id="Contact_Us" transform="translate(-187.000000, -1225.000000)">
            <g id="Sign-Up/In-03" transform="translate(144.000000, 487.000000)">
                <g id="Create-Account" transform="translate(40.000000, 64.000000)">
                    <g id="phone" transform="translate(3.000000, 674.000000)">
                        <g id="Group-3" transform="translate(0.615385, 0.063159)">
                            <mask id="mask-2" fill="white">
                                <use xlink:href="#path-1"></use>
                            </mask>
                            <g id="Clip-2"></g>
                            <path d="M4.42607179,15.1795897 C4.90012308,15.1795897 5.39448205,15.146359 5.85684103,15.0831795 C7.51509744,14.8573333 9.94340513,14.1356923 12.0943795,11.9841026 C16.624841,7.45466667 15.2607385,2.69897436 14.6357128,2.07374359 L13.1834051,0.621435897 C12.8837128,0.321333333 12.4841231,0.156410256 12.0578667,0.156410256 C11.6322256,0.156410256 11.232841,0.321333333 10.9315077,0.62225641 C10.9134564,0.640717949 10.8960205,0.660820513 10.8806359,0.680102564 L8.99632821,3.09548718 C8.71222564,3.39128205 8.55612308,3.78205128 8.55612308,4.19497436 C8.55612308,4.62020513 8.72084103,5.01979487 9.02422564,5.32358974 L11.3354051,7.50574359 C10.3286359,9.89364103 7.96596923,11.0195897 7.20802051,11.2561026 C6.89622564,10.7841026 5.79345641,9.59989744 5.28207179,9.05876923 C4.98196923,8.75866667 4.58258462,8.59353846 4.15755897,8.59353846 C3.75202051,8.59353846 3.36678974,8.74512821 3.07181538,9.02102564 L0.589969231,10.8403077 C0.563917949,10.8593846 0.538687179,10.8811282 0.515507692,10.9038974 C0.215815385,11.2044103 0.0506871795,11.6042051 0.0506871795,12.0294359 C0.0506871795,12.4548718 0.215815385,12.8540513 0.515917949,13.1539487 L2.03550769,14.6737436 C2.5046359,15.1430769 3.98422564,15.1795897 4.42607179,15.1795897" id="Fill-1" fill="#000000" mask="url(#mask-2)"></path>
                        </g>
                        <path d="M0.983876923,6.11302564 C1.07290256,4.77764103 1.63967179,3.52410256 2.57997949,2.58215385 C3.51864615,1.6414359 4.77074872,1.0734359 6.10592821,0.983589744 C6.37710769,0.965128205 6.5822359,0.730461538 6.56418462,0.459076923 C6.54572308,0.187897436 6.31331282,-0.0176410256 6.03967179,0.00123076923 C4.46592821,0.107076923 2.98962051,0.776820513 1.88295385,1.8865641 C0.774030769,2.99671795 0.105723077,4.47425641 0.00110769231,6.04758974 C-0.0169435897,6.31876923 0.188594872,6.55323077 0.459774359,6.57128205 C0.47105641,6.57210256 0.481723077,6.57251282 0.492594872,6.57251282 C0.750235897,6.57251282 0.966646154,6.37292308 0.983876923,6.11302564" id="Fill-4" fill="#000000"></path>
                        <path d="M6.72785641,2.85411282 C6.70939487,2.58334359 6.4790359,2.37862564 6.20334359,2.39626667 C5.21134359,2.46313846 4.28026667,2.88549744 3.58242051,3.58498462 C2.8841641,4.28324103 2.46344615,5.21431795 2.39698462,6.20631795 C2.37893333,6.47749744 2.58406154,6.71236923 2.85524103,6.73042051 C2.86652308,6.73124103 2.8776,6.73165128 2.88847179,6.73165128 C3.14570256,6.73165128 3.36211282,6.53206154 3.37934359,6.2721641 C3.42980513,5.51811282 3.74918974,4.8110359 4.27883077,4.28098462 C4.80888205,3.75011282 5.51595897,3.42970256 6.27001026,3.37883077 C6.54118974,3.36057436 6.74590769,3.12570256 6.72785641,2.85411282" id="Fill-6" fill="#000000"></path>
                        <path d="M5.01632821,6.87505641 C5.02761026,6.87587692 5.03827692,6.87628718 5.04873846,6.87628718 C5.30637949,6.87628718 5.52278974,6.67628718 5.53961026,6.41597949 C5.55048205,6.25167179 5.60566154,6.01290256 5.80853333,5.80982564 C6.01202051,5.60633846 6.25202051,5.54972308 6.41755897,5.53864615 C6.68873846,5.5193641 6.89304615,5.28428718 6.87437949,5.01290256 C6.85571282,4.74151795 6.62350769,4.53844103 6.34904615,4.55608205 C5.87827692,4.58890256 5.43909744,4.78685128 5.11191795,5.11382564 C4.78494359,5.44203077 4.58781538,5.88141538 4.55745641,6.35177436 C4.53961026,6.62295385 4.74514872,6.85741538 5.01632821,6.87505641" id="Fill-8" fill="#000000"></path>
                    </g>
                </g>
            </g>
        </g>
    </g>
</svg>