<?xml version="1.0" encoding="UTF-8"?>
<svg width="26px" height="25px" viewBox="0 0 26 25" version="1.1" xmlns="http://www.w3.org/2000/svg" xmlns:xlink="http://www.w3.org/1999/xlink">
    <!-- Generator: Sketch 58 (84663) - https://sketch.com -->
    <title>Property</title>
    <desc>Created with Sketch.</desc>
    <defs>
        <polygon id="path-1" points="0 0.177777778 25.7910805 0.177777778 25.7910805 25 0 25"></polygon>
    </defs>
    <g id="Page-1" stroke="none" stroke-width="1" fill="none" fill-rule="evenodd">
        <g id="Homepage" transform="translate(-898.000000, -1366.000000)">
            <g id="Property" transform="translate(898.000000, 1366.000000)">
                <g id="Group-3">
                    <mask id="mask-2" fill="white">
                        <use xlink:href="#path-1"></use>
                    </mask>
                    <g id="Clip-2"></g>
                    <path d="M20.6890761,22.2222778 C20.6890761,22.5289444 20.4358587,22.7778333 20.1238587,22.7778333 L5.68255435,22.7778333 C5.37055435,22.7778333 5.11733696,22.5289444 5.11733696,22.2222778 L5.11733696,9.4445 L13.0021196,2.77783333 L20.6890761,9.36116667 L20.6890761,22.2222778 Z M25.380663,10.4722778 L13.7369022,0.4445 C13.313837,0.0886666667 12.6904022,0.0886666667 12.267337,0.4445 L0.397771739,10.4445 C-0.0781413043,10.8433889 -0.135228261,11.5458889 0.270597826,12.0139444 C0.676706522,12.4817222 1.39142391,12.5378333 1.86733696,12.1389444 L2.85646739,11.3056111 L2.85646739,22.2222778 C2.85646739,23.7561667 4.12170652,25.0000556 5.68255435,25.0000556 L20.1238587,25.0000556 C21.6847065,25.0000556 22.9499457,23.7561667 22.9499457,22.2222778 L22.9499457,11.3056111 L23.9108152,12.1389444 C24.3793804,12.5456111 25.0940978,12.502 25.507837,12.0417222 C25.9212935,11.5814444 25.8769239,10.8789444 25.4086413,10.4722778 L25.380663,10.4722778 Z" id="Fill-1" fill-opacity="0.5" fill="#001F5F" mask="url(#mask-2)"></path>
                </g>
                <path d="M15.9446371,12.121858 C16.792483,12.121858 17.4424982,12.6719693 17.6403289,13.6150173 C17.9794673,15.2653513 16.8207445,17.4919924 13.4858839,18.8541729 C10.1227617,17.5181882 8.96403895,15.2915471 9.30317732,13.6150173 C9.50100804,12.6719693 10.1227617,12.0956622 10.9988692,12.0956622 C11.6641456,12.140457 12.2972039,12.3785766 12.8076071,12.7767524 C13.2094861,13.0559994 13.761999,13.0559994 14.1641606,12.7767524 C14.6788031,12.3895788 15.3112962,12.1608897 15.9728986,12.121858 L15.9446371,12.121858 Z M10.9988692,10 C9.04882355,10 7.49443935,11.3097889 7.09877792,13.2220807 C6.56180883,15.7892669 8.17271609,19.1423264 12.9489148,20.8974435 C13.3112276,21.0341855 13.7170632,21.0341855 14.0790934,20.8974435 C18.8273132,19.0899349 20.4379378,15.7368753 19.9012514,13.1958849 C19.5055899,11.2835931 17.9229442,10 16.0011601,10 C15.1340964,10.0170273 14.2868157,10.2428349 13.5424069,10.6548944 C12.7736933,10.2281652 11.8947597,10.0018337 10.9988692,10 L10.9988692,10 Z" id="Fill-4" fill-opacity="0.5" fill="#001F5F"></path>
            </g>
        </g>
    </g>
</svg>