<?xml version="1.0" encoding="UTF-8"?>
<svg width="15px" height="15px" viewBox="0 0 15 15" version="1.1" xmlns="http://www.w3.org/2000/svg" xmlns:xlink="http://www.w3.org/1999/xlink">
    <!-- Generator: Sketch 58 (84663) - https://sketch.com -->
    <title>search_top</title>
    <desc>Created with Sketch.</desc>
    <defs>
        <polygon id="path-1" points="0 0 15 0 15 15 0 15"></polygon>
    </defs>
    <g id="Page-1" stroke="none" stroke-width="1" fill="none" fill-rule="evenodd">
        <g id="Faqs" transform="translate(-1303.000000, -75.000000)">
            <g id="search_top" transform="translate(1303.000000, 75.000000)">
                <mask id="mask-2" fill="white">
                    <use xlink:href="#path-1"></use>
                </mask>
                <g id="Clip-2"></g>
                <path d="M2.14280919,5.89456032 C2.14280919,3.82586953 3.82505427,2.14276443 5.89289311,2.14276443 C7.96073195,2.14276443 9.64230566,3.82586953 9.64230566,5.89456032 C9.64230566,6.92622028 9.22359067,7.86142785 8.54661962,8.54084642 C8.54550066,8.54218915 8.54550066,8.54218915 8.54460549,8.54218915 C8.54326274,8.54330809 8.54234519,8.54554596 8.54124861,8.54644111 C7.86203964,9.22563589 6.92546978,9.64546107 5.89177415,9.64546107 C3.8241591,9.64546107 2.14280919,7.96325112 2.14280919,5.89456032 Z M14.6861316,13.169889 L10.7453768,9.22832134 C11.3986259,8.27901516 11.7828769,7.1318809 11.7828769,5.89456032 C11.7828769,2.64427201 9.14011622,0 5.89199794,0 C2.64410345,0 0,2.64382444 0,5.89456032 C0,9.14395349 2.6427607,11.7880017 5.89199794,11.7880017 C7.13202987,11.7880017 8.28232117,11.4010733 9.23209477,10.744481 L13.1719544,14.6860486 C13.3807524,14.8948423 13.6548977,15 13.929043,15 C14.2031883,15 14.4773336,14.8948423 14.6861316,14.6860486 C15.1046228,14.2659997 15.1046228,13.588819 14.6861316,13.169889 L14.6861316,13.169889 Z" id="Fill-1" fill="#FFFFFF" mask="url(#mask-2)"></path>
            </g>
        </g>
    </g>
</svg>