<?xml version="1.0" encoding="UTF-8"?>
<svg width="15px" height="15px" viewBox="0 0 15 15" version="1.1" xmlns="http://www.w3.org/2000/svg" xmlns:xlink="http://www.w3.org/1999/xlink">
    <!-- Generator: Sketch 58 (84663) - https://sketch.com -->
    <title>search</title>
    <desc>Created with Sketch.</desc>
    <g id="Page-1" stroke="none" stroke-width="1" fill="none" fill-rule="evenodd" opacity="0.5">
        <g id="Faqs" transform="translate(-411.000000, -252.000000)" fill="#737686">
            <path d="M413.142809,257.89456 C413.142809,255.82587 414.825054,254.142764 416.892893,254.142764 C418.960732,254.142764 420.642306,255.82587 420.642306,257.89456 C420.642306,258.92622 420.223591,259.861428 419.54662,260.540846 C419.545501,260.542189 419.545501,260.542189 419.544605,260.542189 C419.543263,260.543308 419.542345,260.545546 419.541249,260.546441 C418.86204,261.225636 417.92547,261.645461 416.891774,261.645461 C414.824159,261.645461 413.142809,259.963251 413.142809,257.89456 Z M425.686132,265.169889 L421.745377,261.228321 C422.398626,260.279015 422.782877,259.131881 422.782877,257.89456 C422.782877,254.644272 420.140116,252 416.891998,252 C413.644103,252 411,254.643824 411,257.89456 C411,261.143953 413.642761,263.788002 416.891998,263.788002 C418.13203,263.788002 419.282321,263.401073 420.232095,262.744481 L424.171954,266.686049 C424.380752,266.894842 424.654898,267 424.929043,267 C425.203188,267 425.477334,266.894842 425.686132,266.686049 C426.104623,266.266 426.104623,265.588819 425.686132,265.169889 L425.686132,265.169889 Z" id="search"></path>
        </g>
    </g>
</svg>