<?xml version="1.0" encoding="UTF-8"?>
<svg width="40px" height="52px" viewBox="0 0 40 52" version="1.1" xmlns="http://www.w3.org/2000/svg" xmlns:xlink="http://www.w3.org/1999/xlink">
    <!-- Generator: Sketch 58 (84663) - https://sketch.com -->
    <title>shield</title>
    <desc>Created with Sketch.</desc>
    <g id="Page-1" stroke="none" stroke-width="1" fill="none" fill-rule="evenodd" opacity="0.5">
        <g id="Homepage" transform="translate(-707.000000, -1302.000000)" fill="#001F5F">
            <g id="shield" transform="translate(707.000000, 1302.000000)">
                <path d="M36,26 C36,33.604 25.361,43.373 20,47.504 C14.637,43.377 4,33.615 4,26 L4,15.857 C10.122,14.978 14.978,10.122 15.857,4 L24.142,4 C25.021,10.123 29.878,14.979 36,15.858 L36,26 Z M38,12 C32.486,12 28,7.514 28,2 C28,0.896 27.104,0 26,0 L14,0 C12.896,0 12,0.896 12,2 C12,7.514 7.514,12 2,12 C0.896,12 0,12.896 0,14 L0,26 C0,37.933 18.063,51.071 18.832,51.624 C19.181,51.874 19.59,52 20,52 C20.41,52 20.819,51.874 21.168,51.623 C21.938,51.07 40,37.933 40,26 L40,14 C40,12.896 39.104,12 38,12 L38,12 Z" id="Fill-1"></path>
                <path d="M26.5859,20.5859 L17.9999,29.1719 L15.4139,26.5859 C14.6339,25.8049 13.3659,25.8049 12.5859,26.5859 C11.8049,27.3669 11.8049,28.6329 12.5859,29.4139 L16.5859,33.4139 C16.9759,33.8049 17.4879,33.9999 17.9999,33.9999 C18.5119,33.9999 19.0239,33.8049 19.4139,33.4139 L29.4139,23.4139 C30.1949,22.6329 30.1949,21.3669 29.4139,20.5859 C28.6329,19.8049 27.3669,19.8049 26.5859,20.5859" id="Fill-3"></path>
            </g>
        </g>
    </g>
</svg>