<?xml version="1.0" encoding="UTF-8"?>
<svg width="221px" height="221px" viewBox="0 0 221 221" version="1.1" xmlns="http://www.w3.org/2000/svg" xmlns:xlink="http://www.w3.org/1999/xlink">
    <!-- Generator: Sketch 58 (84663) - https://sketch.com -->
    <title>x</title>
    <desc>Created with Sketch.</desc>
    <defs>
        <polyline id="path-1" points="80.4797 0.16395 80.4797 79.3259 0.979766667 79.3259 0.979766667 154.6445 80.4797 154.6445 80.4797 233.80645 156.1161 233.80645 156.1161 154.6445 235.612067 154.6445 235.612067 79.3259 156.1161 79.3259 156.1161 0.16395"></polyline>
        <polyline id="path-3" points="80.4797 0.16395 80.4797 79.3259 0.979766667 79.3259 0.979766667 154.6445 80.4797 154.6445 80.4797 233.80645 156.1161 233.80645 156.1161 154.6445 235.612067 154.6445 235.612067 79.3259 156.1161 79.3259 156.1161 0.16395"></polyline>
        <polyline id="path-5" points="80.4797 0.16395 80.4797 79.3259 0.979766667 79.3259 0.979766667 154.6445 80.4797 154.6445 80.4797 233.80645 156.1161 233.80645 156.1161 154.6445 235.612067 154.6445 235.612067 79.3259 156.1161 79.3259 156.1161 0.16395"></polyline>
        <polyline id="path-7" points="80.4797 0.16395 80.4797 79.3259 0.979766667 79.3259 0.979766667 154.6445 80.4797 154.6445 80.4797 233.80645 156.1161 233.80645 156.1161 154.6445 235.612067 154.6445 235.612067 79.3259 156.1161 79.3259 156.1161 0.16395"></polyline>
        <polyline id="path-9" points="80.4797 0.16395 80.4797 79.3259 0.979766667 79.3259 0.979766667 154.6445 80.4797 154.6445 80.4797 233.80645 156.1161 233.80645 156.1161 154.6445 235.612067 154.6445 235.612067 79.3259 156.1161 79.3259 156.1161 0.16395"></polyline>
        <polyline id="path-11" points="80.4797 0.16395 80.4797 79.3259 0.979766667 79.3259 0.979766667 154.6445 80.4797 154.6445 80.4797 233.80645 156.1161 233.80645 156.1161 154.6445 235.612067 154.6445 235.612067 79.3259 156.1161 79.3259 156.1161 0.16395"></polyline>
        <polyline id="path-13" points="80.4797 0.16395 80.4797 79.3259 0.979766667 79.3259 0.979766667 154.6445 80.4797 154.6445 80.4797 233.80645 156.1161 233.80645 156.1161 154.6445 235.612067 154.6445 235.612067 79.3259 156.1161 79.3259 156.1161 0.16395"></polyline>
        <polyline id="path-15" points="80.4797 0.16395 80.4797 79.3259 0.979766667 79.3259 0.979766667 154.6445 80.4797 154.6445 80.4797 233.80645 156.1161 233.80645 156.1161 154.6445 235.612067 154.6445 235.612067 79.3259 156.1161 79.3259 156.1161 0.16395"></polyline>
        <polyline id="path-17" points="80.4797 0.16395 80.4797 79.3259 0.979766667 79.3259 0.979766667 154.6445 80.4797 154.6445 80.4797 233.80645 156.1161 233.80645 156.1161 154.6445 235.612067 154.6445 235.612067 79.3259 156.1161 79.3259 156.1161 0.16395"></polyline>
        <polyline id="path-19" points="80.4797 0.16395 80.4797 79.3259 0.979766667 79.3259 0.979766667 154.6445 80.4797 154.6445 80.4797 233.80645 156.1161 233.80645 156.1161 154.6445 235.612067 154.6445 235.612067 79.3259 156.1161 79.3259 156.1161 0.16395"></polyline>
        <polyline id="path-21" points="80.4797 0.16395 80.4797 79.3259 0.979766667 79.3259 0.979766667 154.6445 80.4797 154.6445 80.4797 233.80645 156.1161 233.80645 156.1161 154.6445 235.612067 154.6445 235.612067 79.3259 156.1161 79.3259 156.1161 0.16395"></polyline>
        <polyline id="path-23" points="80.4797 0.16395 80.4797 79.3259 0.979766667 79.3259 0.979766667 154.6445 80.4797 154.6445 80.4797 233.80645 156.1161 233.80645 156.1161 154.6445 235.612067 154.6445 235.612067 79.3259 156.1161 79.3259 156.1161 0.16395"></polyline>
        <polyline id="path-25" points="80.4797 0.16395 80.4797 79.3259 0.979766667 79.3259 0.979766667 154.6445 80.4797 154.6445 80.4797 233.80645 156.1161 233.80645 156.1161 154.6445 235.612067 154.6445 235.612067 79.3259 156.1161 79.3259 156.1161 0.16395"></polyline>
        <polyline id="path-27" points="80.4797 0.16395 80.4797 79.3259 0.979766667 79.3259 0.979766667 154.6445 80.4797 154.6445 80.4797 233.80645 156.1161 233.80645 156.1161 154.6445 235.612067 154.6445 235.612067 79.3259 156.1161 79.3259 156.1161 0.16395"></polyline>
        <polyline id="path-29" points="80.4797 0.16395 80.4797 79.3259 0.979766667 79.3259 0.979766667 154.6445 80.4797 154.6445 80.4797 233.80645 156.1161 233.80645 156.1161 154.6445 235.612067 154.6445 235.612067 79.3259 156.1161 79.3259 156.1161 0.16395"></polyline>
        <polyline id="path-31" points="80.4797 0.16395 80.4797 79.3259 0.979766667 79.3259 0.979766667 154.6445 80.4797 154.6445 80.4797 233.80645 156.1161 233.80645 156.1161 154.6445 235.612067 154.6445 235.612067 79.3259 156.1161 79.3259 156.1161 0.16395"></polyline>
        <polyline id="path-33" points="80.4797 0.16395 80.4797 79.3259 0.979766667 79.3259 0.979766667 154.6445 80.4797 154.6445 80.4797 233.80645 156.1161 233.80645 156.1161 154.6445 235.612067 154.6445 235.612067 79.3259 156.1161 79.3259 156.1161 0.16395"></polyline>
        <polyline id="path-35" points="80.4797 0.16395 80.4797 79.3259 0.979766667 79.3259 0.979766667 154.6445 80.4797 154.6445 80.4797 233.80645 156.1161 233.80645 156.1161 154.6445 235.612067 154.6445 235.612067 79.3259 156.1161 79.3259 156.1161 0.16395"></polyline>
        <polyline id="path-37" points="80.4797 0.16395 80.4797 79.3259 0.979766667 79.3259 0.979766667 154.6445 80.4797 154.6445 80.4797 233.80645 156.1161 233.80645 156.1161 154.6445 235.612067 154.6445 235.612067 79.3259 156.1161 79.3259 156.1161 0.16395"></polyline>
        <polyline id="path-39" points="80.4797 0.16395 80.4797 79.3259 0.979766667 79.3259 0.979766667 154.6445 80.4797 154.6445 80.4797 233.80645 156.1161 233.80645 156.1161 154.6445 235.612067 154.6445 235.612067 79.3259 156.1161 79.3259 156.1161 0.16395"></polyline>
        <polyline id="path-41" points="80.4797 0.16395 80.4797 79.3259 0.979766667 79.3259 0.979766667 154.6445 80.4797 154.6445 80.4797 233.80645 156.1161 233.80645 156.1161 154.6445 235.612067 154.6445 235.612067 79.3259 156.1161 79.3259 156.1161 0.16395"></polyline>
        <polyline id="path-43" points="80.4797 0.16395 80.4797 79.3259 0.979766667 79.3259 0.979766667 154.6445 80.4797 154.6445 80.4797 233.80645 156.1161 233.80645 156.1161 154.6445 235.612067 154.6445 235.612067 79.3259 156.1161 79.3259 156.1161 0.16395"></polyline>
        <polyline id="path-45" points="80.4797 0.16395 80.4797 79.3259 0.979766667 79.3259 0.979766667 154.6445 80.4797 154.6445 80.4797 233.80645 156.1161 233.80645 156.1161 154.6445 235.612067 154.6445 235.612067 79.3259 156.1161 79.3259 156.1161 0.16395"></polyline>
        <polyline id="path-47" points="80.4797 0.16395 80.4797 79.3259 0.979766667 79.3259 0.979766667 154.6445 80.4797 154.6445 80.4797 233.80645 156.1161 233.80645 156.1161 154.6445 235.612067 154.6445 235.612067 79.3259 156.1161 79.3259 156.1161 0.16395"></polyline>
        <polyline id="path-49" points="80.4797 0.16395 80.4797 79.3259 0.979766667 79.3259 0.979766667 154.6445 80.4797 154.6445 80.4797 233.80645 156.1161 233.80645 156.1161 154.6445 235.612067 154.6445 235.612067 79.3259 156.1161 79.3259 156.1161 0.16395"></polyline>
        <polyline id="path-51" points="80.4797 0.16395 80.4797 79.3259 0.979766667 79.3259 0.979766667 154.6445 80.4797 154.6445 80.4797 233.80645 156.1161 233.80645 156.1161 154.6445 235.612067 154.6445 235.612067 79.3259 156.1161 79.3259 156.1161 0.16395"></polyline>
        <polyline id="path-53" points="80.4797 0.16395 80.4797 79.3259 0.979766667 79.3259 0.979766667 154.6445 80.4797 154.6445 80.4797 233.80645 156.1161 233.80645 156.1161 154.6445 235.612067 154.6445 235.612067 79.3259 156.1161 79.3259 156.1161 0.16395"></polyline>
        <polyline id="path-55" points="80.4797 0.16395 80.4797 79.3259 0.979766667 79.3259 0.979766667 154.6445 80.4797 154.6445 80.4797 233.80645 156.1161 233.80645 156.1161 154.6445 235.612067 154.6445 235.612067 79.3259 156.1161 79.3259 156.1161 0.16395"></polyline>
        <polyline id="path-57" points="80.4797 0.16395 80.4797 79.3259 0.979766667 79.3259 0.979766667 154.6445 80.4797 154.6445 80.4797 233.80645 156.1161 233.80645 156.1161 154.6445 235.612067 154.6445 235.612067 79.3259 156.1161 79.3259 156.1161 0.16395"></polyline>
        <polyline id="path-59" points="80.4797 0.16395 80.4797 79.3259 0.979766667 79.3259 0.979766667 154.6445 80.4797 154.6445 80.4797 233.80645 156.1161 233.80645 156.1161 154.6445 235.612067 154.6445 235.612067 79.3259 156.1161 79.3259 156.1161 0.16395"></polyline>
        <polyline id="path-61" points="80.4797 0.16395 80.4797 79.3259 0.979766667 79.3259 0.979766667 154.6445 80.4797 154.6445 80.4797 233.80645 156.1161 233.80645 156.1161 154.6445 235.612067 154.6445 235.612067 79.3259 156.1161 79.3259 156.1161 0.16395"></polyline>
        <polyline id="path-63" points="80.4797 0.16395 80.4797 79.3259 0.979766667 79.3259 0.979766667 154.6445 80.4797 154.6445 80.4797 233.80645 156.1161 233.80645 156.1161 154.6445 235.612067 154.6445 235.612067 79.3259 156.1161 79.3259 156.1161 0.16395"></polyline>
        <polyline id="path-65" points="80.4797 0.16395 80.4797 79.3259 0.979766667 79.3259 0.979766667 154.6445 80.4797 154.6445 80.4797 233.80645 156.1161 233.80645 156.1161 154.6445 235.612067 154.6445 235.612067 79.3259 156.1161 79.3259 156.1161 0.16395"></polyline>
        <polyline id="path-67" points="80.4797 0.16395 80.4797 79.3259 0.979766667 79.3259 0.979766667 154.6445 80.4797 154.6445 80.4797 233.80645 156.1161 233.80645 156.1161 154.6445 235.612067 154.6445 235.612067 79.3259 156.1161 79.3259 156.1161 0.16395"></polyline>
        <polyline id="path-69" points="80.4797 0.16395 80.4797 79.3259 0.979766667 79.3259 0.979766667 154.6445 80.4797 154.6445 80.4797 233.80645 156.1161 233.80645 156.1161 154.6445 235.612067 154.6445 235.612067 79.3259 156.1161 79.3259 156.1161 0.16395"></polyline>
        <polyline id="path-71" points="80.4797 0.16395 80.4797 79.3259 0.979766667 79.3259 0.979766667 154.6445 80.4797 154.6445 80.4797 233.80645 156.1161 233.80645 156.1161 154.6445 235.612067 154.6445 235.612067 79.3259 156.1161 79.3259 156.1161 0.16395"></polyline>
        <polyline id="path-73" points="80.4797 0.16395 80.4797 79.3259 0.979766667 79.3259 0.979766667 154.6445 80.4797 154.6445 80.4797 233.80645 156.1161 233.80645 156.1161 154.6445 235.612067 154.6445 235.612067 79.3259 156.1161 79.3259 156.1161 0.16395"></polyline>
        <polyline id="path-75" points="80.4797 0.16395 80.4797 79.3259 0.979766667 79.3259 0.979766667 154.6445 80.4797 154.6445 80.4797 233.80645 156.1161 233.80645 156.1161 154.6445 235.612067 154.6445 235.612067 79.3259 156.1161 79.3259 156.1161 0.16395"></polyline>
        <polyline id="path-77" points="80.4797 0.16395 80.4797 79.3259 0.979766667 79.3259 0.979766667 154.6445 80.4797 154.6445 80.4797 233.80645 156.1161 233.80645 156.1161 154.6445 235.612067 154.6445 235.612067 79.3259 156.1161 79.3259 156.1161 0.16395"></polyline>
        <polyline id="path-79" points="80.4797 0.16395 80.4797 79.3259 0.979766667 79.3259 0.979766667 154.6445 80.4797 154.6445 80.4797 233.80645 156.1161 233.80645 156.1161 154.6445 235.612067 154.6445 235.612067 79.3259 156.1161 79.3259 156.1161 0.16395"></polyline>
        <polyline id="path-81" points="80.4797 0.16395 80.4797 79.3259 0.979766667 79.3259 0.979766667 154.6445 80.4797 154.6445 80.4797 233.80645 156.1161 233.80645 156.1161 154.6445 235.612067 154.6445 235.612067 79.3259 156.1161 79.3259 156.1161 0.16395"></polyline>
        <polyline id="path-83" points="80.4797 0.16395 80.4797 79.3259 0.979766667 79.3259 0.979766667 154.6445 80.4797 154.6445 80.4797 233.80645 156.1161 233.80645 156.1161 154.6445 235.612067 154.6445 235.612067 79.3259 156.1161 79.3259 156.1161 0.16395"></polyline>
        <polyline id="path-85" points="80.4797 0.16395 80.4797 79.3259 0.979766667 79.3259 0.979766667 154.6445 80.4797 154.6445 80.4797 233.80645 156.1161 233.80645 156.1161 154.6445 235.612067 154.6445 235.612067 79.3259 156.1161 79.3259 156.1161 0.16395"></polyline>
        <polyline id="path-87" points="80.4797 0.16395 80.4797 79.3259 0.979766667 79.3259 0.979766667 154.6445 80.4797 154.6445 80.4797 233.80645 156.1161 233.80645 156.1161 154.6445 235.612067 154.6445 235.612067 79.3259 156.1161 79.3259 156.1161 0.16395"></polyline>
        <polyline id="path-89" points="80.4797 0.16395 80.4797 79.3259 0.979766667 79.3259 0.979766667 154.6445 80.4797 154.6445 80.4797 233.80645 156.1161 233.80645 156.1161 154.6445 235.612067 154.6445 235.612067 79.3259 156.1161 79.3259 156.1161 0.16395"></polyline>
        <polyline id="path-91" points="80.4797 0.16395 80.4797 79.3259 0.979766667 79.3259 0.979766667 154.6445 80.4797 154.6445 80.4797 233.80645 156.1161 233.80645 156.1161 154.6445 235.612067 154.6445 235.612067 79.3259 156.1161 79.3259 156.1161 0.16395"></polyline>
        <polyline id="path-93" points="80.4797 0.16395 80.4797 79.3259 0.979766667 79.3259 0.979766667 154.6445 80.4797 154.6445 80.4797 233.80645 156.1161 233.80645 156.1161 154.6445 235.612067 154.6445 235.612067 79.3259 156.1161 79.3259 156.1161 0.16395"></polyline>
        <polyline id="path-95" points="80.4797 0.16395 80.4797 79.3259 0.979766667 79.3259 0.979766667 154.6445 80.4797 154.6445 80.4797 233.80645 156.1161 233.80645 156.1161 154.6445 235.612067 154.6445 235.612067 79.3259 156.1161 79.3259 156.1161 0.16395"></polyline>
        <polyline id="path-97" points="80.4797 0.16395 80.4797 79.3259 0.979766667 79.3259 0.979766667 154.6445 80.4797 154.6445 80.4797 233.80645 156.1161 233.80645 156.1161 154.6445 235.612067 154.6445 235.612067 79.3259 156.1161 79.3259 156.1161 0.16395"></polyline>
        <polyline id="path-99" points="80.4797 0.16395 80.4797 79.3259 0.979766667 79.3259 0.979766667 154.6445 80.4797 154.6445 80.4797 233.80645 156.1161 233.80645 156.1161 154.6445 235.612067 154.6445 235.612067 79.3259 156.1161 79.3259 156.1161 0.16395"></polyline>
        <polyline id="path-101" points="80.4797 0.16395 80.4797 79.3259 0.979766667 79.3259 0.979766667 154.6445 80.4797 154.6445 80.4797 233.80645 156.1161 233.80645 156.1161 154.6445 235.612067 154.6445 235.612067 79.3259 156.1161 79.3259 156.1161 0.16395"></polyline>
        <polyline id="path-103" points="80.4797 0.16395 80.4797 79.3259 0.979766667 79.3259 0.979766667 154.6445 80.4797 154.6445 80.4797 233.80645 156.1161 233.80645 156.1161 154.6445 235.612067 154.6445 235.612067 79.3259 156.1161 79.3259 156.1161 0.16395"></polyline>
        <polyline id="path-105" points="80.4797 0.16395 80.4797 79.3259 0.979766667 79.3259 0.979766667 154.6445 80.4797 154.6445 80.4797 233.80645 156.1161 233.80645 156.1161 154.6445 235.612067 154.6445 235.612067 79.3259 156.1161 79.3259 156.1161 0.16395"></polyline>
        <polyline id="path-107" points="80.4797 0.16395 80.4797 79.3259 0.979766667 79.3259 0.979766667 154.6445 80.4797 154.6445 80.4797 233.80645 156.1161 233.80645 156.1161 154.6445 235.612067 154.6445 235.612067 79.3259 156.1161 79.3259 156.1161 0.16395"></polyline>
        <polyline id="path-109" points="80.4797 0.16395 80.4797 79.3259 0.979766667 79.3259 0.979766667 154.6445 80.4797 154.6445 80.4797 233.80645 156.1161 233.80645 156.1161 154.6445 235.612067 154.6445 235.612067 79.3259 156.1161 79.3259 156.1161 0.16395"></polyline>
        <polyline id="path-111" points="80.4797 0.16395 80.4797 79.3259 0.979766667 79.3259 0.979766667 154.6445 80.4797 154.6445 80.4797 233.80645 156.1161 233.80645 156.1161 154.6445 235.612067 154.6445 235.612067 79.3259 156.1161 79.3259 156.1161 0.16395"></polyline>
        <polyline id="path-113" points="80.4797 0.16395 80.4797 79.3259 0.979766667 79.3259 0.979766667 154.6445 80.4797 154.6445 80.4797 233.80645 156.1161 233.80645 156.1161 154.6445 235.612067 154.6445 235.612067 79.3259 156.1161 79.3259 156.1161 0.16395"></polyline>
        <polyline id="path-115" points="80.4797 0.16395 80.4797 79.3259 0.979766667 79.3259 0.979766667 154.6445 80.4797 154.6445 80.4797 233.80645 156.1161 233.80645 156.1161 154.6445 235.612067 154.6445 235.612067 79.3259 156.1161 79.3259 156.1161 0.16395"></polyline>
        <polyline id="path-117" points="80.4797 0.16395 80.4797 79.3259 0.979766667 79.3259 0.979766667 154.6445 80.4797 154.6445 80.4797 233.80645 156.1161 233.80645 156.1161 154.6445 235.612067 154.6445 235.612067 79.3259 156.1161 79.3259 156.1161 0.16395"></polyline>
        <polyline id="path-119" points="80.4797 0.16395 80.4797 79.3259 0.979766667 79.3259 0.979766667 154.6445 80.4797 154.6445 80.4797 233.80645 156.1161 233.80645 156.1161 154.6445 235.612067 154.6445 235.612067 79.3259 156.1161 79.3259 156.1161 0.16395"></polyline>
        <polyline id="path-121" points="80.4797 0.16395 80.4797 79.3259 0.979766667 79.3259 0.979766667 154.6445 80.4797 154.6445 80.4797 233.80645 156.1161 233.80645 156.1161 154.6445 235.612067 154.6445 235.612067 79.3259 156.1161 79.3259 156.1161 0.16395"></polyline>
        <polyline id="path-123" points="80.4797 0.16395 80.4797 79.3259 0.979766667 79.3259 0.979766667 154.6445 80.4797 154.6445 80.4797 233.80645 156.1161 233.80645 156.1161 154.6445 235.612067 154.6445 235.612067 79.3259 156.1161 79.3259 156.1161 0.16395"></polyline>
        <polyline id="path-125" points="80.4797 0.16395 80.4797 79.3259 0.979766667 79.3259 0.979766667 154.6445 80.4797 154.6445 80.4797 233.80645 156.1161 233.80645 156.1161 154.6445 235.612067 154.6445 235.612067 79.3259 156.1161 79.3259 156.1161 0.16395"></polyline>
        <polyline id="path-127" points="80.4797 0.16395 80.4797 79.3259 0.979766667 79.3259 0.979766667 154.6445 80.4797 154.6445 80.4797 233.80645 156.1161 233.80645 156.1161 154.6445 235.612067 154.6445 235.612067 79.3259 156.1161 79.3259 156.1161 0.16395"></polyline>
        <polyline id="path-129" points="80.4797 0.16395 80.4797 79.3259 0.979766667 79.3259 0.979766667 154.6445 80.4797 154.6445 80.4797 233.80645 156.1161 233.80645 156.1161 154.6445 235.612067 154.6445 235.612067 79.3259 156.1161 79.3259 156.1161 0.16395"></polyline>
        <polyline id="path-131" points="80.4797 0.16395 80.4797 79.3259 0.979766667 79.3259 0.979766667 154.6445 80.4797 154.6445 80.4797 233.80645 156.1161 233.80645 156.1161 154.6445 235.612067 154.6445 235.612067 79.3259 156.1161 79.3259 156.1161 0.16395"></polyline>
        <polyline id="path-133" points="80.4797 0.16395 80.4797 79.3259 0.979766667 79.3259 0.979766667 154.6445 80.4797 154.6445 80.4797 233.80645 156.1161 233.80645 156.1161 154.6445 235.612067 154.6445 235.612067 79.3259 156.1161 79.3259 156.1161 0.16395"></polyline>
        <polyline id="path-135" points="80.4797 0.16395 80.4797 79.3259 0.979766667 79.3259 0.979766667 154.6445 80.4797 154.6445 80.4797 233.80645 156.1161 233.80645 156.1161 154.6445 235.612067 154.6445 235.612067 79.3259 156.1161 79.3259 156.1161 0.16395"></polyline>
        <polyline id="path-137" points="80.4797 0.16395 80.4797 79.3259 0.979766667 79.3259 0.979766667 154.6445 80.4797 154.6445 80.4797 233.80645 156.1161 233.80645 156.1161 154.6445 235.612067 154.6445 235.612067 79.3259 156.1161 79.3259 156.1161 0.16395"></polyline>
        <polyline id="path-139" points="80.4797 0.16395 80.4797 79.3259 0.979766667 79.3259 0.979766667 154.6445 80.4797 154.6445 80.4797 233.80645 156.1161 233.80645 156.1161 154.6445 235.612067 154.6445 235.612067 79.3259 156.1161 79.3259 156.1161 0.16395"></polyline>
        <polyline id="path-141" points="80.4797 0.16395 80.4797 79.3259 0.979766667 79.3259 0.979766667 154.6445 80.4797 154.6445 80.4797 233.80645 156.1161 233.80645 156.1161 154.6445 235.612067 154.6445 235.612067 79.3259 156.1161 79.3259 156.1161 0.16395"></polyline>
        <polyline id="path-143" points="80.4797 0.16395 80.4797 79.3259 0.979766667 79.3259 0.979766667 154.6445 80.4797 154.6445 80.4797 233.80645 156.1161 233.80645 156.1161 154.6445 235.612067 154.6445 235.612067 79.3259 156.1161 79.3259 156.1161 0.16395"></polyline>
        <polyline id="path-145" points="80.4797 0.16395 80.4797 79.3259 0.979766667 79.3259 0.979766667 154.6445 80.4797 154.6445 80.4797 233.80645 156.1161 233.80645 156.1161 154.6445 235.612067 154.6445 235.612067 79.3259 156.1161 79.3259 156.1161 0.16395"></polyline>
    </defs>
    <g id="Page-1" stroke="none" stroke-width="1" fill="none" fill-rule="evenodd" opacity="0.0962844122">
        <g id="About_us" transform="translate(-745.000000, -431.000000)">
            <g id="x" transform="translate(855.000000, 541.000000) rotate(45.000000) translate(-855.000000, -541.000000) translate(737.000000, 424.000000)">
                <polygon id="Fill-1" fill="#87AEF4" points="236 79.2830769 156.37548 79.2830769 156.37548 0 80.6205474 0 80.6205474 79.2830769 1 79.2830769 1 154.716923 80.6205474 154.716923 80.6205474 234 156.37548 234 156.37548 154.716923 236 154.716923"></polygon>
                <g id="Group-222">
                    <g id="Group-5">
                        <mask id="mask-2" fill="white">
                            <use xlink:href="#path-1"></use>
                        </mask>
                        <g id="Clip-4"></g>
                    </g>
                    <g id="Group-8">
                        <mask id="mask-4" fill="white">
                            <use xlink:href="#path-3"></use>
                        </mask>
                        <g id="Clip-7"></g>
                        <path d="M47.8423633,36.177285 C46.8506967,36.177285 45.8788633,35.675635 45.3274967,34.771085 L37.3425967,21.724235 C36.49373,20.341735 36.93403,18.536585 38.3223633,17.695235 C39.70673,16.853885 41.5194967,17.292335 42.3683633,18.670885 L50.3532633,31.717735 C51.1981633,33.104185 50.7578633,34.905385 49.36953,35.746735 C48.89353,36.039035 48.3619967,36.177285 47.8423633,36.177285" id="Fill-6" fill="#121212" mask="url(#mask-4)"></path>
                    </g>
                    <g id="Group-11">
                        <mask id="mask-6" fill="white">
                            <use xlink:href="#path-5"></use>
                        </mask>
                        <g id="Clip-10"></g>
                    </g>
                    <g id="Group-14">
                        <mask id="mask-8" fill="white">
                            <use xlink:href="#path-7"></use>
                        </mask>
                        <g id="Clip-13"></g>
                        <path d="M59.43455,68.436935 C58.7522833,68.436935 58.06605,68.199935 57.50675,67.718035 L45.9121833,57.716635 C44.6825167,56.658035 44.5516167,54.805485 45.6146833,53.577035 C46.6817167,52.360435 48.5381167,52.226135 49.7677833,53.284735 L61.36235,63.286135 C62.5920167,64.348685 62.7229167,66.201235 61.65985,67.421785 C61.07675,68.089335 60.2596167,68.436935 59.43455,68.436935" id="Fill-12" fill="#121212" mask="url(#mask-8)"></path>
                    </g>
                    <g id="Group-17">
                        <mask id="mask-10" fill="white">
                            <use xlink:href="#path-9"></use>
                        </mask>
                        <g id="Clip-16"></g>
                        <path d="M55.9867233,16.099435 C55.5424567,16.099435 55.08629,15.996735 54.6658233,15.783435 C53.2140233,15.056635 52.6269567,13.294935 53.3568233,11.849235 L60.2548567,-1.798015 C60.9847233,-3.243715 62.7578233,-3.828315 64.2056567,-3.097565 C65.6574567,-2.370765 66.2405567,-0.609065 65.51069,0.836635 L58.6166233,14.483885 C58.1009567,15.506935 57.06169,16.099435 55.9867233,16.099435" id="Fill-15" fill="#121212" mask="url(#mask-10)"></path>
                    </g>
                    <g id="Group-20">
                        <mask id="mask-12" fill="white">
                            <use xlink:href="#path-11"></use>
                        </mask>
                        <g id="Clip-19"></g>
                        <path d="M26.7674633,63.433865 C26.2755967,63.433865 25.7797633,63.311415 25.3235967,63.050715 L11.96783,55.537815 C10.55173,54.739915 10.05193,52.954515 10.8531967,51.540415 C11.6544633,50.134215 13.4473967,49.636515 14.8634967,50.434415 L28.2192633,57.947315 C29.6353633,58.745215 30.1351633,60.534565 29.3338967,61.944715 C28.7904633,62.896665 27.79483,63.433865 26.7674633,63.433865" id="Fill-18" fill="#121212" mask="url(#mask-12)"></path>
                    </g>
                    <g id="Group-23">
                        <mask id="mask-14" fill="white">
                            <use xlink:href="#path-13"></use>
                        </mask>
                        <g id="Clip-22"></g>
                        <path d="M136.64294,72.36758 C135.195107,72.36758 133.933707,71.30503 133.731407,69.83563 L131.363307,52.77953 C131.141173,51.17978 132.267707,49.69853 133.878173,49.47338 C135.480707,49.26798 136.972173,50.37793 137.194307,51.98163 L139.562407,69.03378 C139.78454,70.64143 138.658007,72.11873 137.051507,72.33993 C136.912673,72.35968 136.777807,72.36758 136.64294,72.36758" id="Fill-21" fill="#121212" mask="url(#mask-14)"></path>
                    </g>
                    <g id="Group-26">
                        <mask id="mask-16" fill="white">
                            <use xlink:href="#path-15"></use>
                        </mask>
                        <g id="Clip-25"></g>
                        <path d="M111.061113,61.63227 C110.831047,61.63227 110.597013,61.60462 110.366947,61.54932 L95.4562467,57.94297 C93.8735467,57.56377 92.90568,55.97587 93.2904467,54.40772 C93.6712467,52.83167 95.26188,51.87577 96.84458,52.24707 L111.751313,55.84947 C113.334013,56.23262 114.30188,57.81657 113.92108,59.39262 C113.591847,60.73167 112.38598,61.63227 111.061113,61.63227" id="Fill-24" fill="#121212" mask="url(#mask-16)"></path>
                    </g>
                    <g id="Group-29">
                        <mask id="mask-18" fill="white">
                            <use xlink:href="#path-17"></use>
                        </mask>
                        <g id="Clip-28"></g>
                        <path d="M113.32132,45.08414 C112.793753,45.08414 112.258253,44.94194 111.778287,44.64964 C110.39392,43.79644 109.96552,41.99129 110.82232,40.60879 L118.886553,27.61329 C119.743353,26.23869 121.55612,25.81209 122.940487,26.66134 C124.320887,27.51454 124.749287,29.31969 123.896453,30.69824 L115.828253,43.69374 C115.27292,44.59039 114.30902,45.08414 113.32132,45.08414" id="Fill-27" fill="#121212" mask="url(#mask-18)"></path>
                    </g>
                    <g id="Group-32">
                        <mask id="mask-20" fill="white">
                            <use xlink:href="#path-19"></use>
                        </mask>
                        <g id="Clip-31"></g>
                        <path d="M74.91169,48.46692 C73.3805567,48.46692 72.09139,47.28587 71.9803233,45.74537 C71.8613233,44.12982 73.0830567,42.72757 74.7054233,42.61302 L90.0088233,41.51887 C91.6470567,41.37272 93.0393567,42.62487 93.15439,44.23647 C93.2694233,45.85202 92.04769,47.25032 90.42929,47.36882 C90.42929,47.36882 74.98309,48.46692 74.91169,48.46692" id="Fill-30" fill="#121212" mask="url(#mask-20)"></path>
                    </g>
                    <g id="Group-35">
                        <mask id="mask-22" fill="white">
                            <use xlink:href="#path-21"></use>
                        </mask>
                        <g id="Clip-34"></g>
                        <path d="M96.6395033,90.11177 C95.4019033,90.11177 94.25157,89.33362 93.8430033,88.10122 L89.0314367,73.59287 C88.5197367,72.06027 89.36067,70.40127 90.8997367,69.89172 C92.4467367,69.37822 94.10877,70.21957 94.62047,71.75612 L99.4360033,86.26052 C99.9437367,87.79707 99.10677,89.45607 97.5637367,89.96562 C97.2583033,90.06437 96.9449367,90.11177 96.6395033,90.11177" id="Fill-33" fill="#121212" mask="url(#mask-22)"></path>
                    </g>
                    <g id="Group-38">
                        <mask id="mask-24" fill="white">
                            <use xlink:href="#path-23"></use>
                        </mask>
                        <g id="Clip-37"></g>
                        <path d="M86.83906,28.535615 C85.5498933,28.535615 84.3678267,27.686365 84.0028933,26.390765 C83.5705267,24.830515 84.4868267,23.211015 86.05366,22.780465 L100.837427,18.696165 C102.40426,18.261665 104.026627,19.178065 104.458993,20.734365 C104.895327,22.294615 103.979027,23.910165 102.412193,24.340715 L87.6284267,28.428965 C87.36266,28.500065 87.0968933,28.535615 86.83906,28.535615" id="Fill-36" fill="#121212" mask="url(#mask-24)"></path>
                    </g>
                    <g id="Group-41">
                        <mask id="mask-26" fill="white">
                            <use xlink:href="#path-25"></use>
                        </mask>
                        <g id="Clip-40"></g>
                        <path d="M123.265357,90.184845 C122.55929,90.184845 121.853223,89.939945 121.289957,89.430395 L109.913557,79.176195 C108.711657,78.085995 108.616457,76.237395 109.711257,75.036595 C110.798123,73.835795 112.65849,73.740995 113.864357,74.827245 L125.240757,85.081445 C126.446623,86.167695 126.537857,88.020245 125.447023,89.224995 C124.86789,89.860945 124.066623,90.184845 123.265357,90.184845" id="Fill-39" fill="#121212" mask="url(#mask-26)"></path>
                    </g>
                    <g id="Group-44">
                        <mask id="mask-28" fill="white">
                            <use xlink:href="#path-27"></use>
                        </mask>
                        <g id="Clip-43"></g>
                        <path d="M67.6602267,97.097345 C66.9144933,97.097345 66.1647933,96.816895 65.5935933,96.252045 C64.4353267,95.114445 64.4234267,93.257945 65.5658267,92.104545 L76.3392933,81.230195 C77.4816933,80.076795 79.3460267,80.064945 80.5003267,81.202545 C81.6585933,82.340145 81.6704933,84.192695 80.53206,85.346095 L69.7546267,96.224395 C69.17946,96.805045 68.41786,97.097345 67.6602267,97.097345" id="Fill-42" fill="#121212" mask="url(#mask-28)"></path>
                    </g>
                    <g id="Group-47">
                        <mask id="mask-30" fill="white">
                            <use xlink:href="#path-29"></use>
                        </mask>
                        <g id="Clip-46"></g>
                        <path d="M6.02973,93.72602 C4.74453,93.72602 3.56246333,92.88072 3.19753,91.59302 C2.75723,90.02882 3.66956333,88.41327 5.23243,87.97482 L20.00033,83.82732 C21.5631967,83.38887 23.18953,84.29737 23.62983,85.85367 C24.0740967,87.41392 23.1617633,89.03342 21.59493,89.47187 L6.83099667,93.61542 C6.56523,93.69047 6.29549667,93.72602 6.02973,93.72602" id="Fill-45" fill="#121212" mask="url(#mask-30)"></path>
                    </g>
                    <g id="Group-50">
                        <mask id="mask-32" fill="white">
                            <use xlink:href="#path-31"></use>
                        </mask>
                        <g id="Clip-49"></g>
                        <path d="M51.3247,91.65464 C51.1025667,91.65464 50.8844,91.62699 50.6583,91.57959 L35.7079333,88.14704 C34.1252333,87.78364 33.1375333,86.20759 33.5024667,84.63154 C33.8713667,83.05154 35.4461333,82.07589 37.0328,82.43139 L51.9831667,85.86394 C53.5658667,86.23129 54.5535667,87.80339 54.1886333,89.38339 C53.8752667,90.73824 52.6614667,91.65464 51.3247,91.65464" id="Fill-48" fill="#121212" mask="url(#mask-32)"></path>
                    </g>
                    <g id="Group-53">
                        <mask id="mask-34" fill="white">
                            <use xlink:href="#path-33"></use>
                        </mask>
                        <g id="Clip-52"></g>
                        <path d="M99.07226,8.727945 C98.73906,8.727945 98.3979267,8.668695 98.0647267,8.550195 L83.64986,3.320395 C82.1226933,2.767395 81.3333267,1.084695 81.8926267,-0.436055 C82.4519267,-1.956805 84.1417267,-2.738905 85.6649267,-2.185905 L100.079793,3.043895 C101.60696,3.596895 102.39236,5.279595 101.837027,6.800345 C101.400693,7.989295 100.27416,8.727945 99.07226,8.727945" id="Fill-51" fill="#121212" mask="url(#mask-34)"></path>
                    </g>
                    <g id="Group-56">
                        <mask id="mask-36" fill="white">
                            <use xlink:href="#path-35"></use>
                        </mask>
                        <g id="Clip-55"></g>
                        <path d="M155.620267,55.86527 C154.584967,55.86527 153.5814,55.32412 153.0459,54.36032 L145.580633,41.01327 C144.791267,39.59917 145.299,37.81377 146.719067,37.02377 C148.139133,36.23772 149.932067,36.74332 150.7254,38.16532 L158.1867,51.50842 C158.980033,52.92252 158.468333,54.70792 157.048267,55.49397 C156.596067,55.74677 156.1042,55.86527 155.620267,55.86527" id="Fill-54" fill="#121212" mask="url(#mask-36)"></path>
                    </g>
                    <g id="Group-59">
                        <mask id="mask-38" fill="white">
                            <use xlink:href="#path-37"></use>
                        </mask>
                        <g id="Clip-58"></g>
                        <path d="M117.355817,11.354695 C116.023017,11.354695 114.813183,10.446195 114.491883,9.095295 C114.119017,7.519245 115.10275,5.939245 116.681483,5.571895 L131.612017,2.060345 C133.198683,1.692995 134.781383,2.664695 135.15425,4.240745 C135.531083,5.816795 134.54735,7.396795 132.968617,7.768095 L118.034117,11.275695 C117.808017,11.327045 117.57795,11.354695 117.355817,11.354695" id="Fill-57" fill="#121212" mask="url(#mask-38)"></path>
                    </g>
                    <g id="Group-62">
                        <mask id="mask-40" fill="white">
                            <use xlink:href="#path-39"></use>
                        </mask>
                        <g id="Clip-61"></g>
                        <path d="M169.918117,39.822345 C169.660283,39.822345 169.398483,39.786795 169.136683,39.719645 C167.56985,39.289095 166.645617,37.673545 167.077983,36.117245 L171.13985,21.383745 C171.572217,19.823495 173.194583,18.903145 174.75745,19.333695 C176.324283,19.760295 177.248517,21.371895 176.81615,22.936095 L172.754283,37.665645 C172.397283,38.969145 171.21125,39.822345 169.918117,39.822345" id="Fill-60" fill="#121212" mask="url(#mask-40)"></path>
                    </g>
                    <g id="Group-65">
                        <mask id="mask-42" fill="white">
                            <use xlink:href="#path-41"></use>
                        </mask>
                        <g id="Clip-64"></g>
                        <path d="M151.074467,26.568515 C150.5826,26.568515 150.0828,26.446065 149.626633,26.185365 L136.270867,18.668515 C134.858733,17.874565 134.358933,16.085215 135.156233,14.675065 C135.9575,13.268865 137.7544,12.771165 139.1705,13.565115 L152.526267,21.081965 C153.942367,21.879865 154.4382,23.669215 153.636933,25.079365 C153.097467,26.031315 152.101833,26.568515 151.074467,26.568515" id="Fill-63" fill="#121212" mask="url(#mask-42)"></path>
                    </g>
                    <g id="Group-68">
                        <mask id="mask-44" fill="white">
                            <use xlink:href="#path-43"></use>
                        </mask>
                        <g id="Clip-67"></g>
                        <path d="M168.30289,9.8928 C167.287423,9.8928 166.299723,9.36745 165.752323,8.4313 L158.072857,-4.79725 C157.25969,-6.1995 157.739657,-7.98885 159.147823,-8.80255 C160.559957,-9.60835 162.356857,-9.1304 163.17399,-7.7321 L170.84949,5.4925 C171.662657,6.89475 171.18269,8.68805 169.774523,9.4978 C169.310423,9.7664 168.80269,9.8928 168.30289,9.8928" id="Fill-66" fill="#121212" mask="url(#mask-44)"></path>
                    </g>
                    <g id="Group-71">
                        <mask id="mask-46" fill="white">
                            <use xlink:href="#path-45"></use>
                        </mask>
                        <g id="Clip-70"></g>
                        <path d="M159.90863,72.32492 C159.119263,72.32492 158.333863,72.01287 157.75473,71.39272 C156.644063,70.20772 156.711497,68.35122 157.901497,67.24917 L169.13113,56.84092 C170.32113,55.73492 172.185463,55.80207 173.292163,56.98707 C174.398863,58.17207 174.33143,60.02857 173.14143,61.13062 L161.911797,71.53887 C161.344563,72.06817 160.626597,72.32492 159.90863,72.32492" id="Fill-69" fill="#121212" mask="url(#mask-46)"></path>
                    </g>
                    <g id="Group-74">
                        <mask id="mask-48" fill="white">
                            <use xlink:href="#path-47"></use>
                        </mask>
                        <g id="Clip-73"></g>
                        <path d="M179.78639,107.076625 C178.497223,107.076625 177.31119,106.223425 176.950223,104.923875 L172.864557,90.202225 C172.43219,88.638025 173.352457,87.026425 174.91929,86.591925 C176.482157,86.173225 178.10849,87.081725 178.540857,88.638025 L182.626523,103.367575 C183.05889,104.923875 182.138623,106.539425 180.57179,106.969975 C180.30999,107.041075 180.044223,107.076625 179.78639,107.076625" id="Fill-72" fill="#121212" mask="url(#mask-48)"></path>
                    </g>
                    <g id="Group-77">
                        <mask id="mask-50" fill="white">
                            <use xlink:href="#path-49"></use>
                        </mask>
                        <g id="Clip-76"></g>
                        <path d="M161.357257,96.98161 C161.12719,96.98161 160.893157,96.95396 160.659123,96.89866 L145.75239,93.29231 C144.16969,92.90916 143.201823,91.32521 143.58659,89.75311 C143.971357,88.17706 145.565957,87.22511 147.140723,87.59641 L162.051423,91.19881 C163.630157,91.58591 164.598023,93.16591 164.217223,94.74196 C163.88799,96.08101 162.682123,96.98161 161.357257,96.98161" id="Fill-75" fill="#121212" mask="url(#mask-50)"></path>
                    </g>
                    <g id="Group-80">
                        <mask id="mask-52" fill="white">
                            <use xlink:href="#path-51"></use>
                        </mask>
                        <g id="Clip-79"></g>
                        <path d="M27.0348167,121.287145 C26.28115,121.287145 25.5274833,121.002745 24.9523167,120.429995 C23.8019833,119.284495 23.8019833,117.427995 24.9523167,116.282495 L37.18155,104.108595 C38.3318833,102.963095 40.19225,102.963095 41.3425833,104.108595 C42.4929167,105.250145 42.4929167,107.110595 41.3425833,108.252145 L29.11335,120.429995 C28.5381833,121.002745 27.7884833,121.287145 27.0348167,121.287145" id="Fill-78" fill="#121212" mask="url(#mask-52)"></path>
                    </g>
                    <g id="Group-83">
                        <mask id="mask-54" fill="white">
                            <use xlink:href="#path-53"></use>
                        </mask>
                        <g id="Clip-82"></g>
                        <path d="M63.59479,121.76944 C62.6031233,121.76944 61.63129,121.26779 61.0799233,120.36719 L53.0950233,107.32034 C52.2461567,105.93389 52.6864567,104.13269 54.07479,103.28739 C55.4591567,102.44604 57.2719233,102.88449 58.12079,104.26304 L66.10569,117.30989 C66.95059,118.69634 66.51029,120.49754 65.1219567,121.33889 C64.6459567,121.63119 64.1144233,121.76944 63.59479,121.76944" id="Fill-81" fill="#121212" mask="url(#mask-54)"></path>
                    </g>
                    <g id="Group-86">
                        <mask id="mask-56" fill="white">
                            <use xlink:href="#path-55"></use>
                        </mask>
                        <g id="Clip-85"></g>
                        <path d="M39.03557,140.43556 C37.70277,140.43556 36.4929367,139.52706 36.1716367,138.17616 C35.79877,136.60011 36.7785367,135.02406 38.3612367,134.64881 L53.29177,131.14121 C54.8784367,130.76991 56.4611367,131.74556 56.8340033,133.32161 C57.2108367,134.90161 56.2271033,136.47766 54.64837,136.84896 L39.71387,140.35656 C39.48777,140.40791 39.2577033,140.43556 39.03557,140.43556" id="Fill-84" fill="#121212" mask="url(#mask-56)"></path>
                    </g>
                    <g id="Group-89">
                        <mask id="mask-58" fill="white">
                            <use xlink:href="#path-57"></use>
                        </mask>
                        <g id="Clip-88"></g>
                        <path d="M59.43455,170.72811 C58.7522833,170.72811 58.06605,170.49111 57.50675,170.01316 L45.9121833,160.00781 C44.6825167,158.94921 44.5516167,157.09666 45.6146833,155.87216 C46.6817167,154.65556 48.5381167,154.51731 49.7677833,155.57986 L61.36235,165.58126 C62.5920167,166.64381 62.7229167,168.49636 61.65985,169.71691 C61.07675,170.38446 60.2596167,170.72811 59.43455,170.72811" id="Fill-87" fill="#121212" mask="url(#mask-58)"></path>
                    </g>
                    <g id="Group-92">
                        <mask id="mask-60" fill="white">
                            <use xlink:href="#path-59"></use>
                        </mask>
                        <g id="Clip-91"></g>
                        <path d="M26.7674633,175.206225 C26.2755967,175.206225 25.7797633,175.083775 25.3235967,174.827025 L11.96783,167.310175 C10.55173,166.516225 10.05193,164.726875 10.8531967,163.312775 C11.6544633,161.906575 13.4473967,161.412825 14.8634967,162.206775 L28.2192633,169.723625 C29.6353633,170.517575 30.1351633,172.310875 29.3338967,173.717075 C28.7904633,174.669025 27.79483,175.206225 26.7674633,175.206225" id="Fill-90" fill="#121212" mask="url(#mask-60)"></path>
                    </g>
                    <g id="Group-95">
                        <mask id="mask-62" fill="white">
                            <use xlink:href="#path-61"></use>
                        </mask>
                        <g id="Clip-94"></g>
                        <path d="M136.64294,184.14389 C135.195107,184.14389 133.933707,183.07739 133.731407,181.61194 L131.363307,164.55584 C131.141173,162.95214 132.267707,161.47089 133.878173,161.24969 C135.480707,161.04034 136.972173,162.15029 137.194307,163.75399 L139.562407,180.81009 C139.78454,182.41379 138.658007,183.89504 137.051507,184.11624 C136.912673,184.13204 136.777807,184.14389 136.64294,184.14389" id="Fill-93" fill="#121212" mask="url(#mask-62)"></path>
                    </g>
                    <g id="Group-98">
                        <mask id="mask-64" fill="white">
                            <use xlink:href="#path-63"></use>
                        </mask>
                        <g id="Clip-97"></g>
                        <path d="M111.061113,163.927395 C110.831047,163.927395 110.597013,163.899745 110.366947,163.844445 L95.4562467,160.238095 C93.8735467,159.858895 92.90568,158.270995 93.2904467,156.698895 C93.6712467,155.126795 95.26188,154.166945 96.84458,154.542195 L111.751313,158.144595 C113.334013,158.527745 114.30188,160.111695 113.92108,161.687745 C113.591847,163.022845 112.38598,163.927395 111.061113,163.927395" id="Fill-96" fill="#121212" mask="url(#mask-64)"></path>
                    </g>
                    <g id="Group-101">
                        <mask id="mask-66" fill="white">
                            <use xlink:href="#path-65"></use>
                        </mask>
                        <g id="Clip-100"></g>
                        <path d="M116.495843,147.37887 C115.968277,147.37887 115.432777,147.23667 114.948843,146.94042 C113.568443,146.09117 113.140043,144.28207 113.992877,142.90352 L122.061077,129.90802 C122.917877,128.53342 124.730643,128.10682 126.111043,128.95607 C127.49541,129.80927 127.92381,131.61442 127.070977,132.98902 L119.002777,145.98452 C118.447443,146.88512 117.483543,147.37887 116.495843,147.37887" id="Fill-99" fill="#121212" mask="url(#mask-66)"></path>
                    </g>
                    <g id="Group-104">
                        <mask id="mask-68" fill="white">
                            <use xlink:href="#path-67"></use>
                        </mask>
                        <g id="Clip-103"></g>
                        <path d="M68.68085,154.441865 C67.4154833,155.302965 65.68205,155.046215 64.71815,153.837515 C63.7106167,152.561665 63.9287833,150.724915 65.2020833,149.717665 L77.2448833,140.245565 C78.5142167,139.210665 80.3706167,139.463465 81.37815,140.731415 C82.3856833,142.003315 82.1675167,143.844015 80.8942167,144.847315 C80.8942167,144.847315 68.74035,154.402365 68.68085,154.441865" id="Fill-102" fill="#121212" mask="url(#mask-68)"></path>
                    </g>
                    <g id="Group-107">
                        <mask id="mask-70" fill="white">
                            <use xlink:href="#path-69"></use>
                        </mask>
                        <g id="Clip-106"></g>
                        <path d="M96.6395033,192.4065 C95.4019033,192.4065 94.25157,191.62835 93.8430033,190.392 L89.0314367,175.8876 C88.5197367,174.355 89.36067,172.696 90.8997367,172.18645 C92.4467367,171.67295 94.10877,172.51035 94.62047,174.05085 L99.4360033,188.5513 C99.9437367,190.0918 99.10677,191.7508 97.5637367,192.2564 C97.2583033,192.35515 96.9449367,192.4065 96.6395033,192.4065" id="Fill-105" fill="#121212" mask="url(#mask-70)"></path>
                    </g>
                    <g id="Group-110">
                        <mask id="mask-72" fill="white">
                            <use xlink:href="#path-71"></use>
                        </mask>
                        <g id="Clip-109"></g>
                        <path d="M86.83906,133.98995 C85.5498933,133.98995 84.36386,133.1407 84.0028933,131.8451 C83.5705267,130.28485 84.4868267,128.66535 86.05366,128.2348 L100.837427,124.1505 C102.40426,123.716 104.026627,124.62845 104.458993,126.1887 C104.895327,127.74895 103.979027,129.3645 102.412193,129.79505 L87.6284267,133.8833 C87.36266,133.9544 87.0968933,133.98995 86.83906,133.98995" id="Fill-108" fill="#121212" mask="url(#mask-72)"></path>
                    </g>
                    <g id="Group-113">
                        <mask id="mask-74" fill="white">
                            <use xlink:href="#path-73"></use>
                        </mask>
                        <g id="Clip-112"></g>
                        <path d="M123.265357,201.96155 C122.55929,201.96155 121.853223,201.7127 121.289957,201.20315 L109.913557,190.9529 C108.711657,189.8627 108.616457,188.01015 109.711257,186.80935 C110.798123,185.60855 112.65849,185.5177 113.864357,186.60395 L125.240757,196.8542 C126.446623,197.94045 126.537857,199.79695 125.447023,200.99775 C124.86789,201.63765 124.066623,201.96155 123.265357,201.96155" id="Fill-111" fill="#121212" mask="url(#mask-74)"></path>
                    </g>
                    <g id="Group-116">
                        <mask id="mask-76" fill="white">
                            <use xlink:href="#path-75"></use>
                        </mask>
                        <g id="Clip-115"></g>
                        <path d="M64.4857033,199.39247 C63.73997,199.39247 62.9942367,199.11202 62.41907,198.54717 C61.26477,197.40957 61.2489033,195.55307 62.3913033,194.39967 L73.16477,183.52137 C74.30717,182.37192 76.1715033,182.36007 77.3258033,183.49767 C78.48407,184.63527 78.4999367,186.48782 77.3575367,187.64122 L66.58407,198.51557 C66.0049367,199.10017 65.2473033,199.39247 64.4857033,199.39247" id="Fill-114" fill="#121212" mask="url(#mask-76)"></path>
                    </g>
                    <g id="Group-119">
                        <mask id="mask-78" fill="white">
                            <use xlink:href="#path-77"></use>
                        </mask>
                        <g id="Clip-118"></g>
                    </g>
                    <g id="Group-122">
                        <mask id="mask-80" fill="white">
                            <use xlink:href="#path-79"></use>
                        </mask>
                        <g id="Clip-121"></g>
                        <path d="M51.3247,193.949765 C51.1025667,193.949765 50.8844,193.922115 50.6583,193.870765 L35.7079333,190.438215 C34.1252333,190.078765 33.1375333,188.502715 33.5024667,186.926665 C33.8713667,185.346665 35.4461333,184.371015 37.0328,184.726515 L51.9831667,188.159065 C53.5658667,188.526415 54.5535667,190.098515 54.1886333,191.674565 C53.8752667,193.033365 52.6614667,193.949765 51.3247,193.949765" id="Fill-120" fill="#121212" mask="url(#mask-80)"></path>
                    </g>
                    <g id="Group-125">
                        <mask id="mask-82" fill="white">
                            <use xlink:href="#path-81"></use>
                        </mask>
                        <g id="Clip-124"></g>
                        <path d="M102.2448,114.181885 C101.9116,114.181885 101.570467,114.122635 101.237267,114.004135 L86.8224,108.774335 C85.2952333,108.221335 84.5098333,106.534685 85.0651667,105.017885 C85.6244667,103.497135 87.3142667,102.715035 88.8414333,103.264085 L103.252333,108.497835 C104.783467,109.050835 105.568867,110.733535 105.009567,112.254285 C104.5772,113.443235 103.4467,114.181885 102.2448,114.181885" id="Fill-123" fill="#121212" mask="url(#mask-82)"></path>
                    </g>
                    <g id="Group-128">
                        <mask id="mask-84" fill="white">
                            <use xlink:href="#path-83"></use>
                        </mask>
                        <g id="Clip-127"></g>
                        <path d="M149.273203,158.160395 C148.237903,158.160395 147.234337,157.615295 146.698837,156.655445 L139.23357,143.304445 C138.444203,141.894295 138.951937,140.108895 140.372003,139.318895 C141.79207,138.532845 143.585003,139.038445 144.378337,140.456495 L151.839637,153.799595 C152.63297,155.217645 152.12127,157.003045 150.701203,157.789095 C150.249003,158.041895 149.757137,158.160395 149.273203,158.160395" id="Fill-126" fill="#121212" mask="url(#mask-84)"></path>
                    </g>
                    <g id="Group-131">
                        <mask id="mask-86" fill="white">
                            <use xlink:href="#path-85"></use>
                        </mask>
                        <g id="Clip-130"></g>
                        <path d="M120.528357,107.32745 C119.195557,107.32745 117.985723,106.4229 117.664423,105.072 C117.295523,103.492 118.27529,101.91595 119.85799,101.54465 L134.788523,98.0331 C136.371223,97.66575 137.953923,98.63745 138.32679,100.2135 C138.703623,101.7935 137.71989,103.36955 136.141157,103.74085 L121.206657,107.24845 C120.980557,107.30375 120.754457,107.32745 120.528357,107.32745" id="Fill-129" fill="#121212" mask="url(#mask-86)"></path>
                    </g>
                    <g id="Group-134">
                        <mask id="mask-88" fill="white">
                            <use xlink:href="#path-87"></use>
                        </mask>
                        <g id="Clip-133"></g>
                        <path d="M169.918117,141.15683 C169.660283,141.15683 169.398483,141.12523 169.136683,141.05413 C167.56985,140.62358 166.645617,139.01198 167.077983,137.45173 L171.13985,122.71823 C171.572217,121.15798 173.194583,120.23763 174.75745,120.66818 C176.324283,121.09478 177.248517,122.70638 176.81615,124.27058 L172.754283,139.00408 C172.397283,140.30363 171.21125,141.15683 169.918117,141.15683" id="Fill-132" fill="#121212" mask="url(#mask-88)"></path>
                    </g>
                    <g id="Group-137">
                        <mask id="mask-90" fill="white">
                            <use xlink:href="#path-89"></use>
                        </mask>
                        <g id="Clip-136"></g>
                        <path d="M154.247007,125.700085 C153.75514,125.700085 153.259307,125.577635 152.799173,125.320885 L139.447373,117.804035 C138.031273,117.006135 137.531473,115.216785 138.33274,113.806635 C139.13004,112.400435 140.92694,111.906685 142.34304,112.700635 L155.698807,120.217485 C157.114907,121.011435 157.61074,122.804735 156.809473,124.210935 C156.270007,125.162885 155.274373,125.700085 154.247007,125.700085" id="Fill-135" fill="#121212" mask="url(#mask-90)"></path>
                    </g>
                    <g id="Group-140">
                        <mask id="mask-92" fill="white">
                            <use xlink:href="#path-91"></use>
                        </mask>
                        <g id="Clip-139"></g>
                        <path d="M159.90863,174.620045 C159.119263,174.620045 158.333863,174.307995 157.75473,173.687845 C156.644063,172.502845 156.711497,170.646345 157.901497,169.544295 L169.13113,159.136045 C170.32113,158.030045 172.185463,158.097195 173.292163,159.282195 C174.398863,160.467195 174.33143,162.323695 173.14143,163.425745 L161.911797,173.833995 C161.344563,174.363295 160.626597,174.620045 159.90863,174.620045" id="Fill-138" fill="#121212" mask="url(#mask-92)"></path>
                    </g>
                    <g id="Group-143">
                        <mask id="mask-94" fill="white">
                            <use xlink:href="#path-93"></use>
                        </mask>
                        <g id="Clip-142"></g>
                        <path d="M186.133453,199.89017 C184.844287,199.89017 183.658253,199.03697 183.297287,197.74137 L179.21162,183.01577 C178.779253,181.45552 179.69952,179.83997 181.266353,179.40547 C182.82922,178.98677 184.455553,179.89527 184.88792,181.45552 L188.973587,196.18112 C189.405953,197.73742 188.485687,199.35297 186.918853,199.78352 C186.657053,199.85462 186.391287,199.89017 186.133453,199.89017" id="Fill-141" fill="#121212" mask="url(#mask-94)"></path>
                    </g>
                    <g id="Group-146">
                        <mask id="mask-96" fill="white">
                            <use xlink:href="#path-95"></use>
                        </mask>
                        <g id="Clip-145"></g>
                        <path d="M161.357257,199.272785 C161.12719,199.272785 160.893157,199.245135 160.659123,199.189835 L145.75239,195.583485 C144.16969,195.204285 143.201823,193.620335 143.58659,192.044285 C143.971357,190.472185 145.565957,189.516285 147.140723,189.887585 L162.051423,193.493935 C163.630157,193.877085 164.598023,195.461035 164.217223,197.037085 C163.88799,198.372185 162.682123,199.272785 161.357257,199.272785" id="Fill-144" fill="#121212" mask="url(#mask-96)"></path>
                    </g>
                    <g id="Group-149">
                        <mask id="mask-98" fill="white">
                            <use xlink:href="#path-97"></use>
                        </mask>
                        <g id="Clip-148"></g>
                        <path d="M199.464627,78.68995 C200.908493,78.68995 202.169893,77.62345 202.37616,76.158 L204.74426,59.1019 C204.966393,57.4982 203.83986,56.01695 202.229393,55.79575 C200.62686,55.5864 199.135393,56.69635 198.909293,58.30005 L196.54516,75.35615 C196.323027,76.95985 197.445593,78.4411 199.05606,78.6623 C199.194893,78.6781 199.32976,78.68995 199.464627,78.68995" id="Fill-147" fill="#121212" mask="url(#mask-98)"></path>
                    </g>
                    <g id="Group-152">
                        <mask id="mask-100" fill="white">
                            <use xlink:href="#path-99"></use>
                        </mask>
                        <g id="Clip-151"></g>
                    </g>
                    <g id="Group-155">
                        <mask id="mask-102" fill="white">
                            <use xlink:href="#path-101"></use>
                        </mask>
                        <g id="Clip-154"></g>
                        <path d="M212.842607,93.348005 C213.548673,93.348005 214.250773,93.099155 214.818007,92.589605 L226.19044,82.339355 C227.396307,81.249155 227.48754,79.396605 226.396707,78.195805 C225.30984,76.995005 223.445507,76.904155 222.23964,77.990405 L210.86324,88.240655 C209.66134,89.326905 209.56614,91.183405 210.66094,92.384205 C211.240073,93.024105 212.037373,93.348005 212.842607,93.348005" id="Fill-153" fill="#121212" mask="url(#mask-102)"></path>
                    </g>
                    <g id="Group-158">
                        <mask id="mask-104" fill="white">
                            <use xlink:href="#path-103"></use>
                        </mask>
                        <g id="Clip-157"></g>
                        <path d="M183.660237,55.86527 C184.695537,55.86527 185.699103,55.32412 186.234603,54.36032 L193.69987,41.01327 C194.489237,39.59917 193.981503,37.81377 192.561437,37.02377 C191.14137,36.23772 189.348437,36.74332 188.555103,38.16532 L181.093803,51.50842 C180.30047,52.92252 180.81217,54.70792 182.232237,55.49397 C182.684437,55.74677 183.176303,55.86527 183.660237,55.86527" id="Fill-156" fill="#121212" mask="url(#mask-104)"></path>
                    </g>
                    <g id="Group-161">
                        <mask id="mask-106" fill="white">
                            <use xlink:href="#path-105"></use>
                        </mask>
                        <g id="Clip-160"></g>
                    </g>
                    <g id="Group-164">
                        <mask id="mask-108" fill="white">
                            <use xlink:href="#path-107"></use>
                        </mask>
                        <g id="Clip-163"></g>
                    </g>
                    <g id="Group-167">
                        <mask id="mask-110" fill="white">
                            <use xlink:href="#path-109"></use>
                        </mask>
                        <g id="Clip-166"></g>
                        <path d="M199.464627,180.981125 C200.908493,180.981125 202.169893,179.918575 202.37616,178.449175 L204.74426,161.393075 C204.966393,159.793325 203.83986,158.312075 202.229393,158.090875 C200.62686,157.881525 199.135393,158.991475 198.909293,160.595175 L196.54516,177.651275 C196.323027,179.254975 197.445593,180.736225 199.05606,180.953475 C199.194893,180.973225 199.32976,180.981125 199.464627,180.981125" id="Fill-165" fill="#121212" mask="url(#mask-110)"></path>
                    </g>
                    <g id="Group-170">
                        <mask id="mask-112" fill="white">
                            <use xlink:href="#path-111"></use>
                        </mask>
                        <g id="Clip-169"></g>
                        <path d="M219.611723,150.53808 C220.13929,150.53808 220.67479,150.39588 221.154757,150.10358 C222.539123,149.25038 222.967523,147.44128 222.110723,146.06273 L214.04649,133.06723 C213.18969,131.69263 211.376923,131.26603 209.992557,132.11528 C208.612157,132.96848 208.183757,134.77363 209.03659,136.15218 L217.10479,149.14768 C217.660123,150.04433 218.624023,150.53808 219.611723,150.53808" id="Fill-168" fill="#121212" mask="url(#mask-112)"></path>
                    </g>
                    <g id="Group-173">
                        <mask id="mask-114" fill="white">
                            <use xlink:href="#path-113"></use>
                        </mask>
                        <g id="Clip-172"></g>
                        <path d="M212.842607,195.63918 C213.548673,195.63918 214.250773,195.39428 214.818007,194.88473 L226.19044,184.63053 C227.396307,183.54033 227.48754,181.69173 226.396707,180.49093 C225.30984,179.28618 223.445507,179.19533 222.23964,180.28158 L210.86324,190.53578 C209.66134,191.62203 209.56614,193.47458 210.66094,194.67933 C211.240073,195.31528 212.037373,195.63918 212.842607,195.63918" id="Fill-171" fill="#121212" mask="url(#mask-114)"></path>
                    </g>
                    <g id="Group-176">
                        <mask id="mask-116" fill="white">
                            <use xlink:href="#path-115"></use>
                        </mask>
                        <g id="Clip-175"></g>
                        <path d="M183.660237,158.160395 C184.695537,158.160395 185.699103,157.615295 186.234603,156.655445 L193.69987,143.304445 C194.489237,141.894295 193.981503,140.108895 192.561437,139.318895 C191.14137,138.532845 189.348437,139.038445 188.555103,140.456495 L181.093803,153.799595 C180.30047,155.217645 180.81217,157.003045 182.232237,157.789095 C182.684437,158.041895 183.176303,158.160395 183.660237,158.160395" id="Fill-174" fill="#121212" mask="url(#mask-116)"></path>
                    </g>
                    <g id="Group-179">
                        <mask id="mask-118" fill="white">
                            <use xlink:href="#path-117"></use>
                        </mask>
                        <g id="Clip-178"></g>
                        <path d="M209.232147,104.16824 C210.564947,104.16824 211.77478,103.25974 212.092113,101.91279 C212.46498,100.33279 211.485213,98.75674 209.902513,98.38149 L194.97198,94.87389 C193.385313,94.50654 191.80658,95.47824 191.429747,97.05429 C191.05688,98.63429 192.040613,100.21034 193.619347,100.58164 L208.553847,104.08924 C208.779947,104.14454 209.006047,104.16824 209.232147,104.16824" id="Fill-177" fill="#121212" mask="url(#mask-118)"></path>
                    </g>
                    <g id="Group-182">
                        <mask id="mask-120" fill="white">
                            <use xlink:href="#path-119"></use>
                        </mask>
                        <g id="Clip-181"></g>
                        <path d="M188.206037,128.859295 C188.697903,128.859295 189.193737,128.740795 189.65387,128.480095 L203.00567,120.963245 C204.42177,120.165345 204.92157,118.379945 204.120303,116.965845 C203.323003,115.559645 201.526103,115.065895 200.110003,115.859845 L186.754237,123.376695 C185.338137,124.170645 184.842303,125.963945 185.64357,127.370145 C186.183037,128.322095 187.17867,128.859295 188.206037,128.859295" id="Fill-180" fill="#121212" mask="url(#mask-120)"></path>
                    </g>
                    <g id="Group-185">
                        <mask id="mask-122" fill="white">
                            <use xlink:href="#path-121"></use>
                        </mask>
                        <g id="Clip-184"></g>
                        <path d="M21.89838,150.325965 C22.29108,151.550465 21.8349133,152.929015 20.7004467,153.667665 C19.33988,154.548515 17.51918,154.173265 16.62668,152.814465 L8.24114667,140.024365 C7.35261333,138.665565 7.73341333,136.852515 9.09794667,135.963765 C10.4585133,135.082915 12.2792133,135.462115 13.1717133,136.816965 L21.5572467,149.607065 C21.70798,149.840115 21.8190467,150.081065 21.89838,150.325965" id="Fill-183" fill="#121212" mask="url(#mask-122)"></path>
                    </g>
                    <g id="Group-188">
                        <mask id="mask-124" fill="white">
                            <use xlink:href="#path-123"></use>
                        </mask>
                        <g id="Clip-187"></g>
                        <path d="M13.3918633,126.822675 C13.0586633,126.822675 12.71753,126.763425 12.38433,126.644925 L-2.03053667,121.415125 C-3.55770333,120.858175 -4.34310333,119.175475 -3.78777,117.658675 C-3.22847,116.137925 -1.53867,115.355825 -0.01547,115.904875 L14.3993967,121.138625 C15.9265633,121.691625 16.7119633,123.374325 16.15663,124.895075 C15.7202967,126.084025 14.5937633,126.822675 13.3918633,126.822675" id="Fill-186" fill="#121212" mask="url(#mask-124)"></path>
                    </g>
                    <g id="Group-191">
                        <mask id="mask-126" fill="white">
                            <use xlink:href="#path-125"></use>
                        </mask>
                        <g id="Clip-190"></g>
                        <path d="M101.051627,227.23918 C100.34556,227.23918 99.6394933,226.99428 99.0762267,226.48473 L87.6998267,216.23053 C86.4979267,215.14033 86.4027267,213.29173 87.4975267,212.09093 C88.5843933,210.88618 90.4487267,210.79533 91.6545933,211.88158 L103.027027,222.13578 C104.232893,223.22203 104.324127,225.07458 103.233293,226.27933 C102.65416,226.91528 101.852893,227.23918 101.051627,227.23918" id="Fill-189" fill="#121212" mask="url(#mask-126)"></path>
                    </g>
                    <g id="Group-194">
                        <mask id="mask-128" fill="white">
                            <use xlink:href="#path-127"></use>
                        </mask>
                        <g id="Clip-193"></g>
                        <path d="M64.4857033,227.82931 C63.73997,227.82931 62.9942367,227.55281 62.41907,226.98796 C61.26477,225.85036 61.2489033,223.98991 62.3913033,222.84046 L73.16477,211.96216 C74.30717,210.81271 76.1715033,210.79691 77.3258033,211.93846 C78.48407,213.07606 78.4999367,214.92861 77.3575367,216.08201 L66.58407,226.95636 C66.0049367,227.54096 65.2473033,227.82931 64.4857033,227.82931" id="Fill-192" fill="#121212" mask="url(#mask-128)"></path>
                    </g>
                    <g id="Group-197">
                        <mask id="mask-130" fill="white">
                            <use xlink:href="#path-129"></use>
                        </mask>
                        <g id="Clip-196"></g>
                    </g>
                    <g id="Group-200">
                        <mask id="mask-132" fill="white">
                            <use xlink:href="#path-131"></use>
                        </mask>
                        <g id="Clip-199"></g>
                        <path d="M52.6555167,211.14214 C52.47305,211.26459 52.2747167,211.36729 52.0644833,211.45024 L37.71705,216.87359 C36.2017833,217.44634 34.5000833,216.68399 33.9249167,215.17509 C33.3457833,213.65829 34.11135,211.97559 35.6305833,211.38704 L49.97405,205.96764 C51.4932833,205.39489 53.1949833,206.15329 53.77015,207.66614 C54.2659833,208.96964 53.77015,210.40349 52.6555167,211.14214" id="Fill-198" fill="#121212" mask="url(#mask-132)"></path>
                    </g>
                    <g id="Group-203">
                        <mask id="mask-134" fill="white">
                            <use xlink:href="#path-133"></use>
                        </mask>
                        <g id="Clip-202"></g>
                        <path d="M176.61385,228.33096 C175.320717,228.33096 174.13865,227.47776 173.777683,226.17821 L169.692017,211.45656 C169.25965,209.89236 170.179917,208.28076 171.742783,207.84626 C173.309617,207.42756 174.93595,208.33606 175.368317,209.89236 L179.453983,224.62191 C179.88635,226.17821 178.966083,227.78981 177.39925,228.22431 C177.13745,228.29541 176.871683,228.33096 176.61385,228.33096" id="Fill-201" fill="#121212" mask="url(#mask-134)"></path>
                    </g>
                    <g id="Group-206">
                        <mask id="mask-136" fill="white">
                            <use xlink:href="#path-135"></use>
                        </mask>
                        <g id="Clip-205"></g>
                        <path d="M135.970987,224.554365 C135.74092,224.554365 135.506887,224.526715 135.272853,224.471415 L120.36612,220.865065 C118.78342,220.485865 117.815553,218.897965 118.20032,217.325865 C118.58112,215.753765 120.179687,214.797865 121.754453,215.169165 L136.665153,218.771565 C138.243887,219.158665 139.211753,220.738665 138.830953,222.318665 C138.50172,223.653765 137.295853,224.554365 135.970987,224.554365" id="Fill-204" fill="#121212" mask="url(#mask-136)"></path>
                    </g>
                    <g id="Group-209">
                        <mask id="mask-138" fill="white">
                            <use xlink:href="#path-137"></use>
                        </mask>
                        <g id="Clip-208"></g>
                    </g>
                    <g id="Group-212">
                        <mask id="mask-140" fill="white">
                            <use xlink:href="#path-139"></use>
                        </mask>
                        <g id="Clip-211"></g>
                        <path d="M155.620267,234.001185 C154.584967,234.001185 153.5814,233.456085 153.0459,232.492285 L145.580633,219.145235 C144.791267,217.735085 145.299,215.949685 146.719067,215.159685 C148.139133,214.369685 149.932067,214.879235 150.7254,216.297285 L158.1867,229.640385 C158.980033,231.058435 158.468333,232.839885 157.048267,233.629885 C156.596067,233.882685 156.1042,234.001185 155.620267,234.001185" id="Fill-210" fill="#121212" mask="url(#mask-140)"></path>
                    </g>
                    <g id="Group-215">
                        <mask id="mask-142" fill="white">
                            <use xlink:href="#path-141"></use>
                        </mask>
                        <g id="Clip-214"></g>
                        <path d="M237.54304,78.68995 C238.990873,78.68995 240.252273,77.62345 240.454573,76.158 L242.822673,59.1019 C243.044807,57.4982 241.92224,56.01695 240.307807,55.79575 C238.705273,55.5864 237.213807,56.69635 236.991673,58.30005 L234.623573,75.35615 C234.40144,76.95985 235.527973,78.4411 237.134473,78.6623 C237.273307,78.6781 237.408173,78.68995 237.54304,78.68995" id="Fill-213" fill="#121212" mask="url(#mask-142)"></path>
                    </g>
                    <g id="Group-218">
                        <mask id="mask-144" fill="white">
                            <use xlink:href="#path-143"></use>
                        </mask>
                        <g id="Clip-217"></g>
                        <path d="M223.113497,125.700085 C223.605363,125.700085 224.101197,125.577635 224.557363,125.320885 L237.91313,117.804035 C239.32923,117.006135 239.82903,115.216785 239.027763,113.806635 C238.230463,112.400435 236.429597,111.906685 235.017463,112.700635 L221.661697,120.217485 C220.245597,121.011435 219.745797,122.804735 220.547063,124.210935 C221.090497,125.162885 222.08613,125.700085 223.113497,125.700085" id="Fill-216" fill="#121212" mask="url(#mask-144)"></path>
                    </g>
                    <g id="Group-221">
                        <mask id="mask-146" fill="white">
                            <use xlink:href="#path-145"></use>
                        </mask>
                        <g id="Clip-220"></g>
                        <path d="M244.13802,104.16824 C245.47082,104.16824 246.680653,103.25974 247.001953,101.91279 C247.370853,100.33279 246.391087,98.75674 244.808387,98.38149 L229.877853,94.87389 C228.291187,94.50654 226.712453,95.47824 226.339587,97.05429 C225.962753,98.63429 226.946487,100.21034 228.52522,100.58164 L243.45972,104.08924 C243.68582,104.14454 243.91192,104.16824 244.13802,104.16824" id="Fill-219" fill="#121212" mask="url(#mask-146)"></path>
                    </g>
                </g>
            </g>
        </g>
    </g>
</svg>