<?xml version="1.0" encoding="UTF-8"?>
<svg width="40px" height="40px" viewBox="0 0 40 40" version="1.1" xmlns="http://www.w3.org/2000/svg" xmlns:xlink="http://www.w3.org/1999/xlink">
    <!-- Generator: Sketch 58 (84663) - https://sketch.com -->
    <title>Youtube</title>
    <desc>Created with Sketch.</desc>
    <g id="Page-1" stroke="none" stroke-width="1" fill="none" fill-rule="evenodd">
        <g id="Homepage" transform="translate(-490.000000, -4224.000000)">
            <g id="Youtube" transform="translate(490.352055, 4224.000000)">
                <rect id="BG" fill="#FE0000" x="0" y="0" width="39.0720391" height="39.0720391" rx="4"></rect>
                <path d="M17.1433994,21.5384615 L17.1428571,16.8498168 L21.8315018,19.2022222 L17.1433994,21.5384615 Z M27.5282051,15.86181 C27.5282051,15.86181 27.3676923,14.7134493 26.8758974,14.207754 C26.2517949,13.5437359 25.5523077,13.5406111 25.2317949,13.502072 C22.9353846,13.3333333 19.4907692,13.3333333 19.4907692,13.3333333 L19.4835897,13.3333333 C19.4835897,13.3333333 16.0389744,13.3333333 13.7425641,13.502072 C13.4215385,13.5406111 12.7225641,13.5437359 12.0979487,14.207754 C11.6061538,14.7134493 11.4461538,15.86181 11.4461538,15.86181 C11.4461538,15.86181 11.2820513,17.2106781 11.2820513,18.5590254 L11.2820513,19.8235242 C11.2820513,21.1723923 11.4461538,22.5207396 11.4461538,22.5207396 C11.4461538,22.5207396 11.6061538,23.6691003 12.0979487,24.1747956 C12.7225641,24.8388137 13.5425641,24.8179817 13.9076923,24.8872479 C15.2205128,25.0153644 19.4871795,25.0549451 19.4871795,25.0549451 C19.4871795,25.0549451 22.9353846,25.0497371 25.2317949,24.8809984 C25.5523077,24.8419385 26.2517949,24.8388137 26.8758974,24.1747956 C27.3676923,23.6691003 27.5282051,22.5207396 27.5282051,22.5207396 C27.5282051,22.5207396 27.6923077,21.1723923 27.6923077,19.8235242 L27.6923077,18.5590254 C27.6923077,17.2106781 27.5282051,15.86181 27.5282051,15.86181 L27.5282051,15.86181 Z" fill="#FFFFFF"></path>
            </g>
        </g>
    </g>
</svg>