<?xml version="1.0" encoding="UTF-8"?>
<svg width="39px" height="20px" viewBox="0 0 39 20" version="1.1" xmlns="http://www.w3.org/2000/svg" xmlns:xlink="http://www.w3.org/1999/xlink">
    <!-- Generator: Sketch 58 (84663) - https://sketch.com -->
    <title>auto</title>
    <desc>Created with Sketch.</desc>
    <g id="Page-1" stroke="none" stroke-width="1" fill="none" fill-rule="evenodd" opacity="0.5">
        <g id="Products" transform="translate(-756.000000, -1102.000000)" fill="#6B6F81">
            <g id="Category-tab-Copy-2" transform="translate(730.000000, 1073.000000)">
                <g id="Category-Tab">
                    <g id="auto" transform="translate(26.000000, 29.000000)">
                        <path d="M37.0941706,13.3993257 C37.0941706,13.8363448 36.7377748,14.1925305 36.2991006,14.1925305 L35.2424717,14.1925305 C34.6881746,12.3091554 32.9620586,10.9220195 30.8981679,10.9220195 C28.8351432,10.9220195 27.1077282,12.3095876 26.5538641,14.1925305 L12.5102265,14.1925305 C12.4621586,14.1925305 12.4210193,14.2128469 12.3751166,14.2197631 C11.8303464,12.3225555 10.0964357,10.9220195 8.02258494,10.9220195 C5.95176549,10.9220195 4.2191539,12.3190974 3.67178548,14.2124146 C3.63800799,14.2089565 3.608994,14.1929627 3.57435043,14.1929627 L3.01875416,14.1929627 C2.40512991,14.1929627 1.90626249,13.6949944 1.90626249,13.082476 L1.90626249,8.88043572 L4.05069953,8.88043572 C4.57771486,8.88043572 5.00383078,8.45422322 5.00383078,7.92902222 C5.00383078,7.40338895 4.57771486,6.97760871 4.05069953,6.97760871 L3.18071286,6.97760871 L8.03297801,1.90282701 L9.09090606,1.90282701 L6.45972685,7.01824155 C6.30816123,7.31261347 6.32115256,7.66534106 6.49437042,7.94847411 C6.66758827,8.23160716 6.97548301,8.40408057 7.30806129,8.40408057 L28.1366422,8.40408057 L37.0946036,9.55822599 L37.0946036,13.3993257 L37.0941706,13.3993257 Z M30.8981679,18.097173 C29.4418388,18.097173 28.2570286,16.9149304 28.2570286,15.4612259 C28.2570286,14.0075214 29.4418388,12.8248465 30.8981679,12.8248465 C32.354497,12.8248465 33.5393071,14.0075214 33.5393071,15.4612259 C33.5393071,16.9149304 32.354497,18.097173 30.8981679,18.097173 L30.8981679,18.097173 Z M8.02258494,18.097173 C6.56582278,18.097173 5.38101266,16.9149304 5.38101266,15.4612259 C5.38101266,14.0075214 6.56582278,12.8248465 8.02258494,12.8248465 C9.47848101,12.8248465 10.6632911,14.0075214 10.6632911,15.4612259 C10.6632911,16.9149304 9.47848101,18.097173 8.02258494,18.097173 L8.02258494,18.097173 Z M11.2067622,1.90282701 L16.4422718,1.90282701 L16.4422718,6.50125357 L8.86875416,6.50125357 L11.1734177,2.01997061 C11.1929047,1.98236362 11.1929047,1.94173079 11.2067622,1.90282701 L11.2067622,1.90282701 Z M25.8965023,6.50125357 L18.3485343,6.50125357 L18.3485343,1.90282701 L21.2897735,1.90282701 L25.8965023,6.50125357 Z M38.1689873,7.77816201 L28.6411392,6.55053168 L22.3585276,0.278810409 C22.1796802,0.100285294 21.9376083,0 21.6847102,0 L7.62548301,0 C7.36479014,0 7.11622252,0.106336993 6.9356429,0.29437192 L0.263291139,7.27154837 C0.218687542,7.3182329 0.194437042,7.3774531 0.16065956,7.43105386 C0.13164557,7.47687387 0.0939706862,7.51620991 0.0731845436,7.56678482 C0.0259826782,7.68090257 0,7.80323334 0,7.92858995 L0,13.0820437 C0,14.7432351 1.35456362,16.0953575 3.01875416,16.0953575 L3.53927382,16.0953575 C3.85193205,18.2960145 5.73307795,20 8.02301799,20 C10.3133911,20 12.1941039,18.2955823 12.5058961,16.094493 C12.5076282,16.094493 12.5089274,16.0953575 12.5102265,16.0953575 L26.4148568,16.0953575 C26.727515,18.2960145 28.6086609,20 30.8981679,20 C33.1881079,20 35.0692538,18.2960145 35.381479,16.0953575 L36.2991006,16.0953575 C37.7883411,16.0953575 39,14.8858823 39,13.3993257 L39,8.7213625 C39,8.24284603 38.6449034,7.83911126 38.1689873,7.77816201 L38.1689873,7.77816201 Z" id="Fill-1"></path>
                        <path d="M19.9565011,9 L18.0434989,9 C17.4665165,9 17,9.44797819 17,10 C17,10.5520218 17.4665165,11 18.0434989,11 L19.9565011,11 C20.5334835,11 21,10.5520218 21,10 C21,9.44797819 20.5330094,9 19.9565011,9" id="Fill-3"></path>
                    </g>
                </g>
            </g>
        </g>
    </g>
</svg>