<?xml version="1.0" encoding="UTF-8"?>
<svg width="15px" height="16px" viewBox="0 0 15 16" version="1.1" xmlns="http://www.w3.org/2000/svg" xmlns:xlink="http://www.w3.org/1999/xlink">
    <!-- Generator: Sketch 58 (84663) - https://sketch.com -->
    <title>Cart Icon</title>
    <desc>Created with Sketch.</desc>
    <g id="Page-1" stroke="none" stroke-width="1" fill="none" fill-rule="evenodd" fill-opacity="0.2">
        <g id="Products" transform="translate(-356.000000, -890.000000)" fill="#001F5F">
            <g id="Group-4" transform="translate(135.000000, 518.000000)">
                <g id="PB-01">
                    <g id="Cart-Btn" transform="translate(206.000000, 365.000000)">
                        <path d="M21.0283966,19.2991744 C21.7624643,20.0314078 21.7624643,21.2185922 21.0283966,21.9508253 C20.294328,22.6830582 19.1041682,22.6830582 18.3700996,21.9508253 C17.636032,21.2185922 17.636032,20.0314078 18.3700996,19.2991744 C19.1041682,18.5669419 20.294328,18.5669419 21.0283966,19.2991744 Z M28.5471898,19.2991744 C29.2812594,20.0314078 29.2812594,21.2185922 28.5471898,21.9508253 C27.8131203,22.6830582 26.6229699,22.6830582 25.8889004,21.9508253 C25.1548308,21.2185922 25.1548308,20.0314078 25.8889004,19.2991744 C26.6229699,18.5669419 27.8131203,18.5669419 28.5471898,19.2991744 Z M15,7.5 L17.8195489,7.5 C18.2503133,7.5 18.6021042,7.73632812 18.730137,8.136773 L18.7593985,8.25 L19.2293233,10.3125 L29.0977444,10.3125 C29.8026316,10.3125 30.0944989,10.9716797 29.9733465,11.4403152 L29.943609,11.53125 L28.0639098,17.15625 C27.9793233,17.49375 27.6663534,17.7553125 27.3305451,17.80425 L27.2180451,17.8125 L19.6992481,17.8125 C19.2684837,17.8125 18.9166928,17.5761719 18.78866,17.175727 L18.7593985,17.0625 L17.0676692,9.375 L15,9.375 L15,7.5 L17.8195489,7.5 Z" id="Cart-Icon"></path>
                    </g>
                </g>
            </g>
        </g>
    </g>
</svg>