<?xml version="1.0" encoding="UTF-8"?>
<svg width="48px" height="62px" viewBox="0 0 48 62" version="1.1" xmlns="http://www.w3.org/2000/svg" xmlns:xlink="http://www.w3.org/1999/xlink">
    <!-- Generator: Sketch 58 (84663) - https://sketch.com -->
    <title>h3</title>
    <desc>Created with Sketch.</desc>
    <defs>
        <polygon id="path-1" points="0 0 48 0 48 61.0909091 0 61.0909091"></polygon>
    </defs>
    <g id="Page-1" stroke="none" stroke-width="1" fill="none" fill-rule="evenodd" opacity="0.4">
        <g id="Help" transform="translate(-285.000000, -953.000000)">
            <g id="h3" transform="translate(285.000000, 953.000000)">
                <path d="M21.8181818,37.0911273 C21.5389091,37.0911273 21.2596364,36.9842182 21.0469091,36.7714909 L14.5014545,30.2260364 C14.0749091,29.7994909 14.0749091,29.1100364 14.5014545,28.6834909 C14.928,28.2569455 15.6174545,28.2569455 16.044,28.6834909 L21.8181818,34.4576727 L31.956,24.3198545 C32.3825455,23.8933091 33.072,23.8933091 33.4985455,24.3198545 C33.9250909,24.7464 33.9250909,25.4358545 33.4985455,25.8624 L22.5894545,36.7714909 C22.3767273,36.9842182 22.0974545,37.0911273 21.8181818,37.0911273" id="Fill-1" fill="#000000"></path>
                <g id="Group-5" transform="translate(0.000000, 0.000218)">
                    <mask id="mask-2" fill="white">
                        <use xlink:href="#path-1"></use>
                    </mask>
                    <g id="Clip-4"></g>
                    <path d="M2.18181818,8.45934545 L2.18181818,29.6284364 C2.18181818,43.0684364 11.1370909,55.0455273 24,58.8637091 C36.8629091,55.0455273 45.8181818,43.0684364 45.8181818,29.6284364 L45.8181818,8.45934545 L24,2.22589091 L2.18181818,8.45934545 Z M24,61.0913455 C23.8996364,61.0913455 23.7981818,61.0771636 23.7,61.0488 C9.74618182,57.0626182 0,44.1418909 0,29.6284364 L0,7.6368 C0,7.14916364 0.322909091,6.72152727 0.790909091,6.58734545 L23.7,0.0418909091 C23.8963636,-0.0148363636 24.1036364,-0.0148363636 24.3,0.0418909091 L47.2090909,6.58734545 C47.6770909,6.72152727 48,7.14916364 48,7.6368 L48,29.6284364 C48,44.1418909 38.2538182,57.0626182 24.3,61.0488 C24.2018182,61.0771636 24.1003636,61.0913455 24,61.0913455 L24,61.0913455 Z" id="Fill-3" fill="#000000" mask="url(#mask-2)"></path>
                </g>
                <path d="M6.54545455,11.7509455 L6.54545455,29.6287636 C6.54545455,40.7353091 13.5436364,50.5938545 24,54.2778545 C34.4563636,50.5938545 41.4545455,40.7353091 41.4545455,29.6287636 L41.4545455,11.7509455 L24,6.7644 L6.54545455,11.7509455 Z M24,56.5229455 C23.8821818,56.5229455 23.7643636,56.5033091 23.652,56.4651273 C12.1145455,52.5804 4.36363636,41.7956727 4.36363636,29.6287636 L4.36363636,10.9284 C4.36363636,10.4407636 4.68654545,10.0131273 5.15454545,9.87894545 L23.7,4.5804 C23.8963636,4.52367273 24.1036364,4.52367273 24.3,4.5804 L42.8454545,9.87894545 C43.3134545,10.0131273 43.6363636,10.4407636 43.6363636,10.9284 L43.6363636,29.6287636 C43.6363636,41.7956727 35.8854545,52.5804 24.348,56.4651273 C24.2356364,56.5033091 24.1178182,56.5229455 24,56.5229455 L24,56.5229455 Z" id="Fill-6" fill="#000000"></path>
            </g>
        </g>
    </g>
</svg>