<?xml version="1.0" encoding="UTF-8"?>
<svg width="48px" height="62px" viewBox="0 0 48 62" version="1.1" xmlns="http://www.w3.org/2000/svg" xmlns:xlink="http://www.w3.org/1999/xlink">
    <!-- Generator: Sketch 58 (84663) - https://sketch.com -->
    <title>h4</title>
    <desc>Created with Sketch.</desc>
    <defs>
        <polygon id="path-1" points="0 0 48 0 48 61.0909091 0 61.0909091"></polygon>
    </defs>
    <g id="Page-1" stroke="none" stroke-width="1" fill="none" fill-rule="evenodd" opacity="0.4">
        <g id="Help" transform="translate(-285.000000, -1176.000000)">
            <g id="h4" transform="translate(285.000000, 1176.000000)">
                <g id="Group-3" transform="translate(0.000000, 0.000218)">
                    <mask id="mask-2" fill="white">
                        <use xlink:href="#path-1"></use>
                    </mask>
                    <g id="Clip-2"></g>
                    <path d="M2.18181818,8.45934545 L2.18181818,29.6295273 C2.18181818,32.3982545 2.56036364,35.1506182 3.30872727,37.8102545 C5.14036364,44.4484364 9.23127273,50.3197091 14.8298182,54.3473455 C17.0629091,55.9760727 19.5370909,57.2895273 22.1912727,58.2549818 C22.7781818,58.4808 23.3814545,58.6837091 24,58.8658909 C24.6185455,58.6848 25.2196364,58.4808 25.7901818,58.2615273 C28.4629091,57.2895273 30.9370909,55.9760727 33.1647273,54.3517091 C38.2352727,50.6949818 42.0098182,45.6593455 44.088,39.7793455 C44.0945455,39.7520727 44.1021818,39.7248 44.112,39.6986182 C45.2443636,36.4542545 45.8181818,33.0658909 45.8181818,29.6295273 L45.8181818,8.45934545 L24,2.22589091 L2.18181818,8.45934545 Z M24,61.0913455 C23.9007273,61.0913455 23.8014545,61.0771636 23.7054545,61.0498909 C22.9178182,60.8295273 22.1509091,60.5764364 21.4265455,60.2982545 C18.5989091,59.2706182 15.9425455,57.8600727 13.5490909,56.1135273 C7.55454545,51.8011636 3.16909091,45.5066182 1.20654545,38.3949818 C0.406909091,35.5498909 0,32.5978909 0,29.6295273 L0,7.6368 C0,7.14916364 0.322909091,6.72152727 0.790909091,6.58734545 L23.7,0.0418909091 C23.8963636,-0.0148363636 24.1036364,-0.0148363636 24.3,0.0418909091 L47.2090909,6.58734545 C47.6770909,6.72152727 48,7.14916364 48,7.6368 L48,29.6295273 C48,33.2851636 47.3934545,36.8906182 46.1967273,40.3455273 C46.1890909,40.3738909 46.1814545,40.4033455 46.1716364,40.4306182 C43.9505455,46.7644364 39.8956364,52.1884364 34.4454545,56.1178909 C32.0574545,57.8600727 29.4010909,59.2706182 26.5549091,60.3048 C25.8490909,60.5764364 25.0821818,60.8295273 24.2945455,61.0498909 C24.1985455,61.0771636 24.0992727,61.0913455 24,61.0913455 L24,61.0913455 Z" id="Fill-1" fill="#000000" mask="url(#mask-2)"></path>
                </g>
                <path d="M15.3254182,54.7012364 C17.4232364,56.1663273 19.7305091,57.3608727 22.1905091,58.2554182 C22.7785091,58.4812364 23.3806909,58.6830545 24.0003273,58.8652364 C24.6188727,58.6841455 25.2188727,58.4812364 25.7905091,58.2619636 C28.2690545,57.3608727 30.5774182,56.1652364 32.6763273,54.7001455 C32.4690545,52.7234182 31.5908727,50.8841455 30.1694182,49.4714182 C29.0141455,48.3085091 27.5523273,47.4968727 25.9345091,47.1205091 C24.6581455,46.8434182 23.3556,46.8401455 22.0508727,47.1237818 C18.4203273,47.9550545 15.7225091,51.0270545 15.3254182,54.7012364 M24.0003273,61.0906909 C23.9010545,61.0906909 23.8017818,61.0776 23.7057818,61.0503273 C22.9181455,60.8299636 22.1512364,60.5768727 21.4268727,60.2986909 C18.5981455,59.2699636 15.9417818,57.8605091 13.5494182,56.1139636 C13.2548727,55.9001455 13.0868727,55.5510545 13.1021455,55.1877818 C13.3050545,50.2819636 16.7894182,46.0896 21.5752364,44.9954182 C23.2072364,44.6386909 24.8032364,44.6408727 26.4145091,44.9932364 C28.4468727,45.4645091 30.2741455,46.4790545 31.7119636,47.9299636 C33.6581455,49.8619636 34.7916,52.4441455 34.8974182,55.1910545 C34.9116,55.5532364 34.7436,55.9001455 34.4501455,56.1139636 C32.0577818,57.8605091 29.4014182,59.2699636 26.5541455,60.3052364 C25.8483273,60.5768727 25.0814182,60.8299636 24.2937818,61.0503273 C24.1977818,61.0776 24.0985091,61.0906909 24.0003273,61.0906909" id="Fill-4" fill="#000000"></path>
                <path d="M27.8863636,45.4423636 C29.3296364,45.9954545 30.6310909,46.8387273 31.7121818,47.9296364 C33.1838182,49.3914545 34.1907273,51.2252727 34.6401818,53.2194545 C38.8827273,49.7569091 42.0867273,45.258 43.974,40.0947273 C43.5354545,39.1118182 42.9169091,38.2118182 42.1707273,37.4732727 C40.5245455,35.8183636 38.3361818,34.9096364 35.9994545,34.9096364 C34.0881818,34.9096364 32.2750909,35.5183636 30.7587273,36.6725455 C30.474,36.8874545 30.2056364,37.1154545 29.9558182,37.3543636 C30.0878182,37.938 30.1270909,38.5434545 30.0714545,39.1358182 L29.8423636,41.5783636 C29.7049091,43.0936364 28.998,44.4638182 27.8863636,45.4423636 M33.8078182,56.3241818 C33.6441818,56.3241818 33.4805455,56.2870909 33.3289091,56.2129091 C32.9678182,56.0372727 32.7332727,55.6772727 32.718,55.2758182 C32.6329091,53.0809091 31.7274545,51.0201818 30.1696364,49.4710909 C29.0143636,48.3081818 27.5525455,47.4965455 25.9347273,47.1201818 C25.2965455,46.9816364 24.6409091,46.9096364 23.9994545,46.9096364 C23.3972727,46.9096364 22.9096364,46.4209091 22.9096364,45.8187273 C22.9096364,45.2154545 23.3972727,44.7278182 23.9994545,44.7278182 C24.5994545,44.7278182 25.1645455,44.5925455 25.6805455,44.3263636 C26.8118182,43.7416364 27.5547273,42.6409091 27.6692727,41.3765455 L27.8994545,38.9307273 C27.9474545,38.4169091 27.8830909,37.9063636 27.7074545,37.4154545 C27.5710909,37.0369091 27.6561818,36.6136364 27.9256364,36.3158182 C28.3750909,35.8194545 28.8845455,35.3536364 29.4398182,34.9336364 C31.338,33.4914545 33.6070909,32.7278182 35.9994545,32.7278182 C38.922,32.7278182 41.6601818,33.8645455 43.7121818,35.9285455 C44.7725455,36.9769091 45.5972727,38.2347273 46.1569091,39.6583636 C46.2070909,39.786 46.2321818,39.9212727 46.2321818,40.0576364 L46.2321818,40.0696364 C46.2321818,40.1929091 46.2114545,40.3150909 46.1710909,40.4307273 C43.9510909,46.7645455 39.8961818,52.1896364 34.446,56.118 C34.2561818,56.2543636 34.0325455,56.3241818 33.8078182,56.3241818" id="Fill-6" fill="#000000"></path>
                <path d="M23.7816,34.9093091 C22.9252364,34.9093091 22.1223273,35.1951273 21.4601455,35.7340364 C20.4946909,36.5129455 19.9874182,37.7074909 20.1008727,38.9325818 L20.3299636,41.3740364 C20.4445091,42.6405818 21.1885091,43.7424 22.3176,44.3249455 C23.3517818,44.8594909 24.6488727,44.8584 25.6808727,44.3260364 C26.8121455,43.7424 27.5550545,42.6405818 27.6696,41.3773091 L27.8986909,38.9314909 C27.9477818,38.4165818 27.8823273,37.9060364 27.7077818,37.4151273 C27.1961455,35.9096727 25.7965091,34.9093091 24.2179636,34.9093091 L23.7816,34.9093091 Z M23.9997818,46.9093091 C23.0616,46.9093091 22.1332364,46.6856727 21.3172364,46.2624 C19.5216,45.3384 18.3401455,43.5853091 18.1568727,41.5747636 L17.9288727,39.1354909 C17.7488727,37.1794909 18.5550545,35.2747636 20.0856,34.0387636 C21.1241455,33.1944 22.4376,32.7274909 23.7816,32.7274909 L24.2179636,32.7274909 C26.7325091,32.7274909 28.9623273,34.3224 29.7674182,36.6973091 C30.0412364,37.4631273 30.1481455,38.3107636 30.0717818,39.1354909 L29.8426909,41.5780364 C29.6594182,43.5853091 28.4779636,45.3384 26.6812364,46.2634909 C25.8663273,46.6856727 24.9390545,46.9093091 23.9997818,46.9093091 L23.9997818,46.9093091 Z" id="Fill-8" fill="#000000"></path>
                <path d="M35.8152,20.7274909 C34.4635636,20.7274909 33.2122909,21.2740364 32.2937455,22.2656727 C31.3752,23.2584 30.9268364,24.5467636 31.0304727,25.8951273 L31.2148364,28.2962182 C31.4057455,30.7813091 33.5079273,32.7274909 35.9995636,32.7274909 C38.4922909,32.7274909 40.5933818,30.7813091 40.7853818,28.2962182 L40.9697455,25.8951273 C41.0733818,24.5467636 40.6250182,23.2584 39.7053818,22.2656727 C38.7879273,21.2740364 37.5366545,20.7274909 36.1850182,20.7274909 L35.8152,20.7274909 Z M35.9995636,34.9093091 C32.3755636,34.9093091 29.3177455,32.0773091 29.0395636,28.4631273 L28.8552,26.0620364 C28.7057455,24.1300364 29.3766545,22.2056727 30.6933818,20.7831273 C32.0101091,19.3616727 33.8766545,18.5456727 35.8152,18.5456727 L36.1850182,18.5456727 C38.1235636,18.5456727 39.9901091,19.3616727 41.3068364,20.7831273 C42.6235636,22.2056727 43.2933818,24.1300364 43.1450182,26.0620364 L42.9606545,28.4631273 C42.6824727,32.0773091 39.6246545,34.9093091 35.9995636,34.9093091 L35.9995636,34.9093091 Z" id="Fill-10" fill="#000000"></path>
                <path d="M3.36807273,38.0244 C5.05898182,43.9796727 8.57389091,49.3098545 13.3640727,53.2240364 C14.1702545,49.6840364 16.7066182,46.7440364 20.1113455,45.4404 C19.0018909,44.4607636 18.2949818,43.0916727 18.1575273,41.5753091 L17.9284364,39.1360364 C17.7768,37.4909455 18.3233455,35.8818545 19.4109818,34.6774909 C19.2495273,34.4167636 19.0673455,34.1593091 18.8666182,33.9051273 C18.6549818,33.6258545 18.4291636,33.3684 18.1651636,33.1044 C16.5571636,31.4865818 14.3251636,30.5549455 12.0397091,30.5462182 C7.64443636,30.5462182 3.96916364,33.7458545 3.36807273,38.0244 M14.1920727,56.3233091 C13.9673455,56.3233091 13.7448,56.2545818 13.5549818,56.1182182 C7.55498182,51.8014909 3.16952727,45.5069455 1.20698182,38.3953091 C1.1688,38.2600364 1.15789091,38.1193091 1.17425455,37.9796727 C1.81243636,32.4978545 6.46625455,28.3644 12.0004364,28.3644 C14.9491636,28.3753091 17.6709818,29.5120364 19.7120727,31.5651273 C20.0437091,31.8989455 20.3328,32.2273091 20.5924364,32.5698545 C21.0549818,33.1556727 21.4498909,33.7818545 21.7542545,34.4145818 C21.9735273,34.8705818 21.8502545,35.4182182 21.4564364,35.7367636 C20.4942545,36.5124 19.9880727,37.7080364 20.1004364,38.9331273 L20.3295273,41.3734909 C20.4451636,42.6400364 21.1880727,43.7418545 22.3182545,44.3244 C22.8353455,44.5927636 23.4004364,44.7280364 24.0004364,44.7280364 C24.6026182,44.7280364 25.0913455,45.2156727 25.0913455,45.8189455 C25.0913455,46.4211273 24.6026182,46.9098545 24.0004364,46.9098545 C23.3589818,46.9098545 22.7033455,46.9818545 22.0509818,47.1236727 C18.2328,47.9985818 15.4444364,51.3520364 15.2818909,55.2771273 C15.2655273,55.6796727 15.0298909,56.0385818 14.6698909,56.2142182 C14.5182545,56.2873091 14.3546182,56.3233091 14.1920727,56.3233091" id="Fill-12" fill="#000000"></path>
                <path d="M11.8582909,16.3638545 C10.5033818,16.3638545 9.25101818,16.9104 8.33029091,17.9042182 C7.41174545,18.8958545 6.96338182,20.1820364 7.06592727,21.5282182 L7.25138182,23.9271273 C7.44774545,26.4373091 9.4932,28.3453091 12.0077455,28.3638545 C14.5310182,28.3638545 16.6310182,26.4144 16.8252,23.9260364 L17.0106545,21.5271273 C17.1132,20.1831273 16.6648364,18.8958545 15.7462909,17.9053091 C14.8255636,16.9104 13.5732,16.3638545 12.2182909,16.3638545 L11.8582909,16.3638545 Z M12.0437455,30.5456727 C8.33574545,30.5194909 5.36192727,27.7474909 5.07610909,24.0962182 L4.89065455,21.6951273 C4.74338182,19.7653091 5.4132,17.8431273 6.72992727,16.4216727 C8.04774545,14.9980364 9.91756364,14.1820364 11.8582909,14.1820364 L12.2182909,14.1820364 C14.1590182,14.1820364 16.0288364,14.9991273 17.3466545,16.4216727 C18.6633818,17.8431273 19.3342909,19.7653091 19.1859273,21.6951273 L19.1859273,21.6951273 L19.0004727,24.0951273 C18.7190182,27.7125818 15.6622909,30.5456727 12.0437455,30.5456727 L12.0437455,30.5456727 Z" id="Fill-14" fill="#000000"></path>
            </g>
        </g>
    </g>
</svg>