<?xml version="1.0" encoding="UTF-8"?>
<svg width="50px" height="50px" viewBox="0 0 50 50" version="1.1" xmlns="http://www.w3.org/2000/svg" xmlns:xlink="http://www.w3.org/1999/xlink">
    <!-- Generator: Sketch 58 (84663) - https://sketch.com -->
    <title>h5</title>
    <desc>Created with Sketch.</desc>
    <g id="Page-1" stroke="none" stroke-width="1" fill="none" fill-rule="evenodd" opacity="0.4">
        <g id="Help" transform="translate(-285.000000, -1408.000000)" fill="#000000">
            <g id="h5" transform="translate(285.000000, 1408.000000)">
                <path d="M2,15 L2,45 C2,46.654 3.346,48 5,48 L45,48 C46.654,48 48,46.654 48,45 L48,15 L2,15 Z M45,50 L5,50 C2.243,50 0,47.757 0,45 L0,14 C0,13.448 0.448,13 1,13 L49,13 C49.553,13 50,13.448 50,14 L50,45 C50,47.757 47.757,50 45,50 L45,50 Z" id="Fill-1"></path>
                <path d="M2,13 L48,13 L48,8 C48,6.346 46.654,5 45,5 L5,5 C3.346,5 2,6.346 2,8 L2,13 Z M49,15 L1,15 C0.448,15 0,14.552 0,14 L0,8 C0,5.243 2.243,3 5,3 L45,3 C47.757,3 50,5.243 50,8 L50,14 C50,14.552 49.553,15 49,15 L49,15 Z" id="Fill-3"></path>
                <path d="M14,8 C13.448,8 13,7.552 13,7 L13,1 C13,0.448 13.448,0 14,0 C14.552,0 15,0.448 15,1 L15,7 C15,7.552 14.552,8 14,8" id="Fill-5"></path>
                <path d="M36,8 C35.447,8 35,7.552 35,7 L35,1 C35,0.448 35.447,0 36,0 C36.553,0 37,0.448 37,1 L37,7 C37,7.552 36.553,8 36,8" id="Fill-7"></path>
                <path d="M17,23.311 L17,31.142 C17,36.08 20.275,40.486 25,41.957 C29.725,40.486 33,36.08 33,31.142 L33,23.311 L25,21.04 L17,23.311 Z M25,44 C24.908,44 24.816,43.987 24.727,43.962 C19,42.336 15,37.064 15,31.142 L15,22.556 C15,22.108 15.297,21.716 15.727,21.594 L24.727,19.038 C24.905,18.987 25.095,18.987 25.273,19.038 L34.273,21.594 C34.703,21.716 35,22.108 35,22.556 L35,31.142 C35,37.064 31,42.336 25.273,43.962 C25.184,43.987 25.092,44 25,44 L25,44 Z" id="Fill-9"></path>
                <path d="M24,35 C23.744,35 23.488,34.902 23.293,34.707 L20.793,32.207 C20.402,31.816 20.402,31.184 20.793,30.793 C21.184,30.402 21.816,30.402 22.207,30.793 L24,32.586 L28.293,28.293 C28.684,27.902 29.316,27.902 29.707,28.293 C30.098,28.684 30.098,29.316 29.707,29.707 L24.707,34.707 C24.512,34.902 24.256,35 24,35" id="Fill-11"></path>
            </g>
        </g>
    </g>
</svg>