<?xml version="1.0" encoding="UTF-8"?>
<svg width="24px" height="24px" viewBox="0 0 24 24" version="1.1" xmlns="http://www.w3.org/2000/svg" xmlns:xlink="http://www.w3.org/1999/xlink">
    <!-- Generator: Sketch 58 (84663) - https://sketch.com -->
    <title>medical</title>
    <desc>Created with Sketch.</desc>
    <defs>
        <polygon id="path-1" points="0 0.236954798 23.0769231 0.236954798 23.0769231 23.0769231 0 23.0769231"></polygon>
    </defs>
    <g id="Page-1" stroke="none" stroke-width="1" fill="none" fill-rule="evenodd" opacity="0.5">
        <g id="Products" transform="translate(-576.000000, -1099.000000)">
            <g id="Category-tab-Copy" transform="translate(542.000000, 1073.000000)">
                <g id="Category-Tab">
                    <g id="medical" transform="translate(34.000000, 26.000000)">
                        <g id="Group-3">
                            <mask id="mask-2" fill="white">
                                <use xlink:href="#path-1"></use>
                            </mask>
                            <g id="Clip-2"></g>
                            <path d="M21.1538462,11.656368 L16.4663462,11.656368 C15.8694712,11.6551784 15.3860577,11.1765107 15.3846154,10.5857891 L15.3846154,4.9949881 L18.2091346,4.9949881 C19.834375,4.99760508 21.1512019,6.30085646 21.1538462,7.90934179 L21.1538462,11.656368 Z M21.1538462,17.3661221 C21.1538462,17.8916574 20.7233173,18.3177478 20.1923077,18.3177478 L20.0552885,18.3177478 C19.5350962,16.2905472 17.4526442,15.0643775 15.4040865,15.579207 C14.0442308,15.9210785 12.9824519,16.9721491 12.6370192,18.3177478 L10.4399038,18.3177478 C9.91971154,16.2905472 7.83725962,15.0643775 5.78870192,15.579207 C4.42884615,15.9210785 3.36706731,16.9721491 3.02163462,18.3177478 L2.88461538,18.3177478 C2.35360577,18.3177478 1.92307692,17.8916574 1.92307692,17.3661221 L1.92307692,3.09173672 C1.92307692,2.56620143 2.35360577,2.14011102 2.88461538,2.14011102 L12.5,2.14011102 C13.0310096,2.14011102 13.4615385,2.56620143 13.4615385,3.09173672 L13.4615385,10.5857891 C13.4641827,12.2271055 14.8079327,13.5570024 16.4663462,13.5596193 L21.1538462,13.5596193 L21.1538462,17.3661221 Z M16.3461538,21.1726249 C15.2841346,21.1726249 14.4230769,20.3204441 14.4230769,19.2693735 C14.4230769,18.2183029 15.2841346,17.3661221 16.3461538,17.3661221 C17.4081731,17.3661221 18.2692308,18.2183029 18.2692308,19.2693735 C18.2692308,20.3204441 17.4081731,21.1726249 16.3461538,21.1726249 L16.3461538,21.1726249 Z M6.73076923,21.1726249 C5.66875,21.1726249 4.80769231,20.3204441 4.80769231,19.2693735 C4.80769231,18.2183029 5.66875,17.3661221 6.73076923,17.3661221 C7.79278846,17.3661221 8.65384615,18.2183029 8.65384615,19.2693735 C8.65384615,20.3204441 7.79278846,21.1726249 6.73076923,21.1726249 L6.73076923,21.1726249 Z M18.2091346,3.09173672 L15.3846154,3.09173672 C15.3846154,1.51513085 14.0930288,0.236859635 12.5,0.236859635 L2.88461538,0.236859635 C1.29158654,0.236859635 0,1.51513085 0,3.09173672 L0,17.3661221 C0,18.942728 1.29158654,20.2209992 2.88461538,20.2209992 L3.02163462,20.2209992 C3.54182692,22.2481998 5.62427885,23.4743695 7.67283654,22.95954 C9.03269231,22.6176685 10.0944712,21.5665979 10.4399038,20.2209992 L12.6370192,20.2209992 C13.1572115,22.2481998 15.2396635,23.4743695 17.2882212,22.95954 C18.6480769,22.6176685 19.7098558,21.5665979 20.0552885,20.2209992 L20.1923077,20.2209992 C21.7853365,20.2209992 23.0769231,18.942728 23.0769231,17.3661221 L23.0769231,7.90934179 C23.0742788,5.24978588 20.8966346,3.09435369 18.2091346,3.09173672 L18.2091346,3.09173672 Z" id="Fill-1" fill="#6B6F81" mask="url(#mask-2)"></path>
                        </g>
                        <path d="M11.0769231,8.30769231 L9.23076923,8.30769231 L9.23076923,6.46153846 C9.23076923,5.95176923 8.81746154,5.53846154 8.30769231,5.53846154 C7.79792308,5.53846154 7.38461538,5.95176923 7.38461538,6.46153846 L7.38461538,8.30769231 L5.53846154,8.30769231 C5.02869231,8.30769231 4.61538462,8.721 4.61538462,9.23076923 C4.61538462,9.74053846 5.02869231,10.1538462 5.53846154,10.1538462 L7.38461538,10.1538462 L7.38461538,12 C7.38461538,12.5097692 7.79792308,12.9230769 8.30769231,12.9230769 C8.81746154,12.9230769 9.23076923,12.5097692 9.23076923,12 L9.23076923,10.1538462 L11.0769231,10.1538462 C11.5866923,10.1538462 12,9.74053846 12,9.23076923 C12,8.721 11.5866923,8.30769231 11.0769231,8.30769231" id="Fill-4" fill="#6B6F81"></path>
                    </g>
                </g>
            </g>
        </g>
    </g>
</svg>