<?xml version="1.0" encoding="UTF-8"?>
<svg width="20px" height="19px" viewBox="0 0 20 19" version="1.1" xmlns="http://www.w3.org/2000/svg" xmlns:xlink="http://www.w3.org/1999/xlink">
    <!-- Generator: Sketch 58 (84663) - https://sketch.com -->
    <title>search_2</title>
    <desc>Created with Sketch.</desc>
    <defs>
        <polygon id="path-1" points="0 5.22051453e-05 19.051642 5.22051453e-05 19.051642 19.0287755 0 19.0287755"></polygon>
    </defs>
    <g id="Page-1" stroke="none" stroke-width="1" fill="none" fill-rule="evenodd">
        <g id="NewsCentre" transform="translate(-1184.000000, -304.000000)">
            <g id="search_2" transform="translate(1184.000000, 304.000000)">
                <mask id="mask-2" fill="white">
                    <use xlink:href="#path-1"></use>
                </mask>
                <g id="Clip-2"></g>
                <path d="M7.85029653,13.5472874 C6.31024474,13.5472874 4.90070581,12.9469282 3.80439776,11.8767228 C1.58567908,9.65800409 1.58567908,6.02974649 3.80439776,3.78492524 C4.87460324,2.71471976 6.31024474,2.11436059 7.85029653,2.11436059 C9.39034831,2.11436059 10.7998872,2.71471976 11.8961953,3.78492524 C12.9925033,4.85513072 13.5667599,6.29077222 13.5667599,7.83082401 C13.5667599,9.37087579 12.9666618,10.7804147 11.8961953,11.8767228 C10.8259898,12.9730308 9.36424574,13.5472874 7.85029653,13.5472874 M18.7350693,17.2277502 L14.0627088,12.5553897 C16.4119404,9.50138866 16.1770172,5.09005388 13.3582004,2.2970786 C11.8178876,0.757026813 9.83435307,5.22051453e-05 7.82419395,5.22051453e-05 C5.81429586,5.22051453e-05 3.83050033,0.757026813 2.29044855,2.2970786 C-0.763552456,5.3510796 -0.763552456,10.3105684 2.29044855,13.3645694 C3.83050033,14.9046212 5.81429586,15.6615958 7.82419395,15.6615958 C9.4947586,15.6615958 11.1653233,15.1395444 12.5487596,14.0693389 L17.2472227,18.7155968 C17.4560433,18.9244174 17.717069,19.0288277 18.0041973,19.0288277 C18.265223,19.0288277 18.5523513,18.9244174 18.7611719,18.7155968 C19.1527105,18.3240582 19.1527105,17.6453913 18.7350693,17.2277502" id="Fill-1" fill="#000000" mask="url(#mask-2)"></path>
            </g>
        </g>
    </g>
</svg>